<svg width="246" height="366" viewBox="0 0 246 366" fill="none" xmlns="http://www.w3.org/2000/svg">
<path d="M18 34C18 25.1634 25.1634 18 34 18H212C220.837 18 228 25.1634 228 34V332C228 340.837 220.837 348 212 348H34C25.1634 348 18 340.837 18 332V34Z" fill="#CBE0F2"/>
<rect x="28" y="170" width="190" height="70" rx="12" fill="black" fill-opacity="0.2"/>
<rect x="28" y="166" width="190" height="70" rx="12" fill="#F2F2F7"/>
<path d="M92.9873 192.517C92.8451 191.991 92.7739 191.444 92.7739 190.875V190.782C92.7739 190.219 92.8451 189.675 92.9873 189.149C93.1296 188.617 93.346 188.15 93.6367 187.748C93.9274 187.346 94.2985 187.024 94.75 186.783C95.2015 186.536 95.7396 186.412 96.3643 186.412C96.7601 186.412 97.1188 186.465 97.4404 186.57C97.762 186.669 98.0465 186.808 98.2939 186.987C98.5475 187.16 98.7702 187.371 98.9619 187.618C99.1536 187.859 99.3206 188.122 99.4629 188.407L101.819 187.08C101.597 186.616 101.306 186.196 100.947 185.818C100.589 185.435 100.174 185.11 99.7041 184.844C99.2402 184.572 98.7238 184.365 98.1548 184.223C97.592 184.074 96.9951 184 96.3643 184C95.3932 184 94.515 184.179 93.7295 184.538C92.9502 184.891 92.2822 185.376 91.7256 185.995C91.1751 186.607 90.7484 187.331 90.4453 188.166C90.1484 188.994 90 189.885 90 190.837C90 191.796 90.133 192.69 90.3989 193.519C90.6711 194.347 91.0638 195.071 91.5771 195.689C92.0967 196.308 92.7337 196.793 93.4883 197.146C94.2428 197.499 95.1056 197.675 96.0767 197.675C96.491 197.675 96.8807 197.632 97.2456 197.545C97.6167 197.458 97.9569 197.341 98.2661 197.192C98.5754 197.038 98.8537 196.855 99.1011 196.645C99.3485 196.429 99.5557 196.19 99.7227 195.931V197.489H102.079V190.197H96.0581V192.248H99.4629V192.377C99.4629 192.662 99.4134 192.971 99.3145 193.305C99.2217 193.639 99.0547 193.951 98.8135 194.242C98.5785 194.527 98.2599 194.765 97.8579 194.957C97.4621 195.148 96.9642 195.244 96.3643 195.244C95.7396 195.244 95.2015 195.124 94.75 194.882C94.2985 194.635 93.9274 194.31 93.6367 193.908C93.346 193.506 93.1296 193.042 92.9873 192.517Z" fill="black"/>
<path fill-rule="evenodd" clip-rule="evenodd" d="M110.132 184C111.121 184 112.009 184.179 112.794 184.538C113.58 184.891 114.245 185.376 114.789 185.995C115.34 186.607 115.757 187.331 116.042 188.166C116.332 188.994 116.478 189.885 116.478 190.837C116.478 191.796 116.332 192.69 116.042 193.519C115.757 194.347 115.34 195.071 114.789 195.689C114.245 196.308 113.58 196.793 112.794 197.146C112.009 197.499 111.121 197.675 110.132 197.675C109.136 197.675 108.245 197.499 107.46 197.146C106.681 196.793 106.016 196.308 105.465 195.689C104.921 195.071 104.504 194.347 104.213 193.519C103.928 192.69 103.786 191.796 103.786 190.837C103.786 189.885 103.928 188.994 104.213 188.166C104.504 187.331 104.921 186.607 105.465 185.995C106.016 185.376 106.681 184.891 107.46 184.538C108.245 184.179 109.136 184 110.132 184ZM110.132 195.244C110.713 195.244 111.223 195.136 111.663 194.919C112.108 194.697 112.482 194.391 112.785 194.001C113.088 193.611 113.317 193.151 113.472 192.619C113.626 192.087 113.704 191.505 113.704 190.875V190.8C113.704 190.176 113.626 189.597 113.472 189.065C113.317 188.527 113.088 188.063 112.785 187.674C112.482 187.284 112.108 186.981 111.663 186.765C111.223 186.542 110.713 186.431 110.132 186.431C109.55 186.431 109.037 186.542 108.592 186.765C108.146 186.981 107.772 187.284 107.469 187.674C107.172 188.063 106.947 188.527 106.792 189.065C106.637 189.597 106.56 190.176 106.56 190.8V190.875C106.56 191.505 106.637 192.087 106.792 192.619C106.947 193.151 107.172 193.611 107.469 194.001C107.772 194.391 108.146 194.697 108.592 194.919C109.037 195.136 109.55 195.244 110.132 195.244Z" fill="black"/>
<path d="M141.1 195.077C140.766 195.188 140.404 195.244 140.014 195.244C139.625 195.244 139.26 195.188 138.919 195.077C138.585 194.96 138.295 194.786 138.047 194.558C137.806 194.323 137.614 194.029 137.472 193.676C137.33 193.318 137.259 192.897 137.259 192.415V184.167H134.596V192.813C134.596 193.556 134.729 194.227 134.995 194.827C135.267 195.427 135.645 195.937 136.127 196.357C136.609 196.778 137.181 197.103 137.843 197.332C138.505 197.56 139.229 197.675 140.014 197.675C140.8 197.675 141.523 197.56 142.185 197.332C142.847 197.103 143.416 196.778 143.892 196.357C144.375 195.937 144.749 195.427 145.015 194.827C145.287 194.227 145.423 193.556 145.423 192.813V184.167H142.77V192.415C142.77 192.897 142.698 193.318 142.556 193.676C142.414 194.029 142.219 194.323 141.972 194.558C141.73 194.786 141.44 194.96 141.1 195.077Z" fill="black"/>
<path d="M150.748 184.186H148.058V197.489H150.748V193.444L152.464 191.524L155.98 197.489H159.107L154.19 189.474L158.81 184.186H155.498L150.748 189.947V184.186Z" fill="black"/>
<path d="M129.058 195.986C129.058 195.757 129.101 195.544 129.188 195.346C129.28 195.142 129.404 194.966 129.559 194.817C129.713 194.663 129.893 194.542 130.097 194.456C130.307 194.363 130.527 194.316 130.755 194.316C130.984 194.316 131.201 194.363 131.405 194.456C131.609 194.542 131.788 194.663 131.943 194.817C132.097 194.966 132.218 195.142 132.305 195.346C132.397 195.544 132.444 195.757 132.444 195.986C132.444 196.221 132.397 196.441 132.305 196.645C132.218 196.849 132.097 197.028 131.943 197.183C131.788 197.338 131.609 197.458 131.405 197.545C131.201 197.632 130.984 197.675 130.755 197.675C130.527 197.675 130.307 197.632 130.097 197.545C129.893 197.458 129.713 197.338 129.559 197.183C129.404 197.028 129.28 196.849 129.188 196.645C129.101 196.441 129.058 196.221 129.058 195.986Z" fill="black"/>
<path d="M117.507 184.186L121.265 197.489H124.92L128.677 184.186H125.699L123.185 194.187H123.092L120.522 184.186H117.507Z" fill="black"/>
<rect x="89" y="209" width="108" height="14" rx="7" fill="#CDCDCD"/>
<rect x="38" y="179" width="44" height="44" rx="8" fill="#144E81"/>
<path d="M66.1688 196.36C65.2781 196.711 64.2656 196.306 63.9094 195.46C63.5438 194.614 63.9656 193.633 64.8563 193.291C65.7281 192.949 66.7406 193.354 67.1063 194.2C67.4719 195.046 67.05 196.009 66.1781 196.36" fill="white"/>
<path d="M60.6656 202.354C59.775 202.705 58.7625 202.3 58.4062 201.454C58.0406 200.608 58.4625 199.627 59.3531 199.285C60.225 198.943 61.2375 199.348 61.6031 200.194C61.9688 201.04 61.5469 202.003 60.675 202.354" fill="white"/>
<path d="M70.8 199.015C69.9094 199.366 68.8969 198.961 68.5406 198.115C68.175 197.269 68.5969 196.288 69.4875 195.946C70.3594 195.604 71.3719 196.009 71.7375 196.855C72.1031 197.701 71.6813 198.664 70.8094 199.015" fill="white"/>
<path d="M73.8656 203.389C72.975 203.74 71.9625 203.335 71.6062 202.498C71.2406 201.652 71.6625 200.671 72.5531 200.329C73.425 199.987 74.4375 200.392 74.8031 201.238C75.1688 202.084 74.7469 203.047 73.875 203.398" fill="white"/>
<path d="M60.9187 191.212L63.1031 192.31V189.214L60.9187 189.88C60.8625 189.799 60.7875 189.727 60.7031 189.664C60.6187 189.601 61.5844 187 61.5844 187H58.4344L59.3156 189.655C59.2406 189.718 59.1656 189.79 59.1 189.871C59.0344 189.952 56.9156 189.214 56.9156 189.214V192.31L59.1 191.203C59.1656 191.293 59.2406 191.365 59.325 191.419L58.0687 195.055C58.0687 195.055 58.0687 195.064 58.0687 195.073C58.0125 195.253 57.975 195.451 57.975 195.649C57.975 196.63 58.7344 197.449 59.7188 197.584H59.7656C59.85 197.593 59.9344 197.602 60.0188 197.602C60.1031 197.602 60.1875 197.602 60.2719 197.584H60.3188C61.3031 197.44 62.0625 196.63 62.0625 195.649C62.0625 195.451 62.0344 195.253 61.9688 195.073C61.9688 195.073 61.9688 195.064 61.9688 195.055L60.7125 191.419C60.7969 191.356 60.8719 191.284 60.9375 191.203" fill="white"/>
<path d="M53.8031 196.36C54.6938 196.711 55.7063 196.306 56.0625 195.46C56.4281 194.614 56.0063 193.633 55.1156 193.291C54.2437 192.949 53.2313 193.354 52.8656 194.2C52.5 195.046 52.9219 196.009 53.7937 196.36" fill="white"/>
<path d="M49.1719 199.015C50.0625 199.366 51.075 198.961 51.4313 198.115C51.7969 197.269 51.375 196.288 50.4844 195.946C49.6125 195.604 48.6 196.009 48.2344 196.855C47.8688 197.701 48.2906 198.664 49.1625 199.015" fill="white"/>
<path d="M46.1062 203.389C46.9969 203.74 48.0094 203.335 48.3656 202.498C48.7312 201.652 48.3094 200.671 47.4187 200.329C46.5469 199.987 45.5344 200.392 45.1688 201.238C44.8031 202.084 45.225 203.047 46.0969 203.398" fill="white"/>
<path d="M60 213.253C64.1437 213.253 68.0625 213.523 71.5594 214C72.5531 209.995 73.7625 207.7 75 206.071L72.6562 205.27C72.8906 206.413 72.9281 206.944 72.6656 207.682C72.2812 207.322 71.9156 206.647 71.625 205.63L70.4906 209.266C71.1844 208.807 71.7188 208.51 72.3281 208.501C71.25 210.742 69.8906 211.318 69.0188 211.156C67.95 210.967 67.4531 210.049 67.6219 209.275C67.8656 208.177 69.0469 207.889 69.5906 209.167C70.6406 207.106 68.8594 206.467 67.7156 207.079C69.4781 205.387 69.675 203.893 68.2594 202.075C66.2812 203.533 66.2531 204.973 67.1438 206.998C65.9906 205.729 64.1812 206.413 64.8375 208.465C65.6719 207.223 66.7781 208.006 66.6 209.185C66.45 210.211 65.0438 211.039 63.2812 210.895C60.7594 210.679 60.6094 209.005 60.5437 207.628C61.1625 207.52 62.2781 208.069 63.2344 209.356L63.5812 205.504C62.55 206.539 61.6031 206.737 60.5625 206.764C60.9094 205.72 62.5125 204.019 62.5125 204.019H57.4969C57.4969 204.019 59.0906 205.729 59.4469 206.764C58.4062 206.728 57.4594 206.539 56.4281 205.504L56.775 209.356C57.7313 208.078 58.8375 207.52 59.4656 207.628C59.4 209.014 59.25 210.679 56.7281 210.895C54.9656 211.039 53.5594 210.211 53.4094 209.185C53.2312 208.006 54.3375 207.223 55.1719 208.465C55.8188 206.413 54.0188 205.729 52.8656 206.998C53.7563 204.973 53.7375 203.533 51.75 202.075C50.325 203.893 50.5312 205.387 52.2938 207.079C51.15 206.467 49.3594 207.115 50.4188 209.167C50.9719 207.889 52.1438 208.177 52.3875 209.275C52.5563 210.049 52.0594 210.967 50.9906 211.156C50.1188 211.309 48.7594 210.733 47.6812 208.501C48.2906 208.519 48.825 208.807 49.5188 209.266L48.3844 205.63C48.0938 206.647 47.7281 207.322 47.3438 207.682C47.0812 206.944 47.1188 206.413 47.3438 205.27L45 206.071C46.2469 207.7 47.4563 209.995 48.4406 214C51.9375 213.523 55.8562 213.253 59.9906 213.253" fill="white"/>
<path fill-rule="evenodd" clip-rule="evenodd" d="M34 0H212C230.778 0 246 15.2223 246 34V332C246 350.778 230.778 366 212 366H34C15.2223 366 0 350.778 0 332V34C0 15.2223 15.2223 0 34 0ZM34 18C25.1634 18 18 25.1634 18 34V332C18 340.837 25.1634 348 34 348H212C220.837 348 228 340.837 228 332V34C228 25.1634 220.837 18 212 18H34Z" fill="#505A5F"/>
<path fill-rule="evenodd" clip-rule="evenodd" d="M107.094 111.32C107.328 109.867 107.445 108.383 107.445 106.867V106.094C107.445 103.578 107.109 101.32 106.438 99.3203C105.781 97.3203 104.844 95.625 103.625 94.2344C102.422 92.8438 100.969 91.7812 99.2656 91.0469C97.5625 90.2969 95.6641 89.9219 93.5703 89.9219C91.6641 89.9219 89.9375 90.2266 88.3906 90.8359C86.8438 91.4297 85.5156 92.2578 84.4062 93.3203C83.3125 94.3672 82.4609 95.6172 81.8516 97.0703C81.2578 98.5234 80.9609 100.094 80.9609 101.781C80.9609 103.359 81.2578 104.812 81.8516 106.141C82.4453 107.469 83.2578 108.617 84.2891 109.586C85.3359 110.539 86.5625 111.289 87.9688 111.836C89.3906 112.367 90.9219 112.633 92.5625 112.633C93.3906 112.633 94.1797 112.555 94.9297 112.398C95.6953 112.227 96.3984 112.008 97.0391 111.742C97.6953 111.461 98.2891 111.141 98.8203 110.781C99.3516 110.422 99.8125 110.047 100.203 109.656C100.219 110.844 100.078 111.969 99.7812 113.031C99.4844 114.078 99.0391 115 98.4453 115.797C97.8672 116.594 97.1328 117.227 96.2422 117.695C95.3516 118.148 94.3203 118.375 93.1484 118.375C91.9453 118.375 90.8672 118.109 89.9141 117.578C88.9766 117.031 88.2266 116.227 87.6641 115.164L81.3828 117.625C81.7891 118.594 82.3516 119.5 83.0703 120.344C83.7891 121.172 84.6406 121.891 85.625 122.5C86.6094 123.109 87.7109 123.594 88.9297 123.953C90.1484 124.297 91.4766 124.469 92.9141 124.469C94.6641 124.469 96.2344 124.242 97.625 123.789C99.0312 123.336 100.273 122.711 101.352 121.914C102.43 121.117 103.352 120.172 104.117 119.078C104.883 117.969 105.508 116.766 105.992 115.469C106.492 114.156 106.859 112.773 107.094 111.32ZM99.4531 99.1562C99.7344 99.8438 99.875 100.586 99.875 101.383C99.875 102.164 99.7344 102.898 99.4531 103.586C99.1719 104.273 98.7656 104.875 98.2344 105.391C97.7188 105.891 97.0938 106.289 96.3594 106.586C95.625 106.867 94.8125 107.008 93.9219 107.008C93 107.008 92.1719 106.867 91.4375 106.586C90.7031 106.289 90.0781 105.891 89.5625 105.391C89.0469 104.875 88.6484 104.273 88.3672 103.586C88.1016 102.898 87.9688 102.164 87.9688 101.383C87.9688 100.586 88.1016 99.8438 88.3672 99.1562C88.6484 98.4688 89.0469 97.875 89.5625 97.375C90.0781 96.8594 90.7031 96.4609 91.4375 96.1797C92.1719 95.8828 93 95.7344 93.9219 95.7344C94.8125 95.7344 95.625 95.8828 96.3594 96.1797C97.0938 96.4609 97.7188 96.8594 98.2344 97.375C98.7656 97.875 99.1719 98.4688 99.4531 99.1562Z" fill="#505A5F"/>
<path d="M138.289 124V90.3906H131.586V90.9766C131.586 91.8047 131.523 92.5156 131.398 93.1094C131.273 93.6875 131.031 94.1641 130.672 94.5391C130.312 94.9141 129.812 95.1953 129.172 95.3828C128.547 95.5547 127.734 95.6406 126.734 95.6406H125.234V101.781H131.328V124H138.289Z" fill="#505A5F"/>
<path d="M142.859 96.8359H159.805L145.836 124H153.805L166.812 96.9297V90.3906H142.859V96.8359Z" fill="#505A5F"/>
<path d="M112.109 119.969C112.109 119.375 112.227 118.812 112.461 118.281C112.711 117.734 113.039 117.258 113.445 116.852C113.852 116.445 114.328 116.125 114.875 115.891C115.422 115.641 116 115.516 116.609 115.516C117.219 115.516 117.797 115.641 118.344 115.891C118.906 116.125 119.391 116.445 119.797 116.852C120.203 117.258 120.523 117.734 120.758 118.281C121.008 118.812 121.133 119.375 121.133 119.969C121.133 120.594 121.008 121.18 120.758 121.727C120.523 122.273 120.203 122.75 119.797 123.156C119.391 123.562 118.906 123.883 118.344 124.117C117.797 124.352 117.219 124.469 116.609 124.469C116 124.469 115.422 124.352 114.875 124.117C114.328 123.883 113.852 123.562 113.445 123.156C113.039 122.75 112.711 122.273 112.461 121.727C112.227 121.18 112.109 120.594 112.109 119.969Z" fill="#505A5F"/>
<path d="M112.109 103.398C112.109 102.773 112.227 102.188 112.461 101.641C112.711 101.094 113.039 100.617 113.445 100.211C113.852 99.8047 114.328 99.4844 114.875 99.25C115.422 99.0156 116 98.8984 116.609 98.8984C117.219 98.8984 117.797 99.0156 118.344 99.25C118.906 99.4844 119.391 99.8047 119.797 100.211C120.203 100.617 120.523 101.094 120.758 101.641C121.008 102.188 121.133 102.773 121.133 103.398C121.133 104.008 121.008 104.586 120.758 105.133C120.523 105.68 120.203 106.164 119.797 106.586C119.391 106.992 118.906 107.32 118.344 107.57C117.797 107.805 117.219 107.922 116.609 107.922C116 107.922 115.422 107.805 114.875 107.57C114.328 107.32 113.852 106.992 113.445 106.586C113.039 106.164 112.711 105.68 112.461 105.133C112.227 104.586 112.109 104.008 112.109 103.398Z" fill="#505A5F"/>
<circle cx="123" cy="37" r="9" fill="#505A5F"/>
</svg>
