<?xml version="1.0" encoding="UTF-8"?>
<svg xmlns="http://www.w3.org/2000/svg" xmlns:xlink="http://www.w3.org/1999/xlink" version="1.1" viewBox="0 0 600 600">
  <defs>
    <style>
      .cls-1 {
        fill: #259aff;
      }

      .cls-2 {
        clip-path: url(#clippath-1);
      }

      .cls-3 {
        clip-path: url(#clippath-2);
      }

      .cls-4 {
        fill: #fff;
      }

      .cls-5 {
        fill: #11875a;
      }

      .cls-6 {
        fill: #d1d1d1;
      }

      .cls-7 {
        clip-path: url(#clippath);
      }
    </style>
    <clipPath id="clippath">
      <rect class="cls-4" x="221.6" y="25.8" width="154.2" height="154.2" rx="20.7" ry="20.7"/>
    </clipPath>
    <clipPath id="clippath-1">
      <rect class="cls-5" x="221.6" y="214.1" width="154.2" height="154.2" rx="20.7" ry="20.7"/>
    </clipPath>
    <clipPath id="clippath-2">
      <rect class="cls-4" x="221.6" y="402.3" width="154.2" height="154.2" rx="20.7" ry="20.7"/>
    </clipPath>
  </defs>
  <!-- Generator: Adobe Illustrator 28.7.1, SVG Export Plug-In . SVG Version: 1.2.0 Build 142)  -->
  <g>
    <g id="Outlined_-_dark_mode">
      <g>
        <circle class="cls-1" cx="300" cy="291.2" r="244.9"/>
        <rect x="211.8" y="225.8" width="154.2" height="154.2" rx="20.7" ry="20.7"/>
        <g>
          <rect class="cls-4" x="221.6" y="25.8" width="154.2" height="154.2" rx="20.7" ry="20.7"/>
          <g class="cls-7">
            <g>
              <path d="M298.8,125.6c-17.9,0-32.5-14.6-32.5-32.5s14.6-32.5,32.5-32.5,32.5,14.6,32.5,32.5-14.6,32.5-32.5,32.5ZM298.8,64.7c-15.7,0-28.5,12.8-28.5,28.5s12.8,28.5,28.5,28.5,28.5-12.8,28.5-28.5-12.8-28.5-28.5-28.5Z"/>
              <path d="M298.8,245c-30.7,0-55.7-25-55.7-55.7s25-55.7,55.7-55.7,55.7,25,55.7,55.7-25,55.7-55.7,55.7ZM298.8,137.6c-28.5,0-51.7,23.2-51.7,51.7s23.2,51.7,51.7,51.7,51.7-23.2,51.7-51.7-23.2-51.7-51.7-51.7Z"/>
            </g>
          </g>
        </g>
        <g>
          <rect class="cls-5" x="221.6" y="214.1" width="154.2" height="154.2" rx="20.7" ry="20.7"/>
          <g class="cls-2">
            <path class="cls-4" d="M266.3,281.4c0-17.9,14.6-32.5,32.5-32.5s32.5,14.6,32.5,32.5-14.6,32.5-32.5,32.5-32.5-14.6-32.5-32.5ZM298.8,321.8c-30.7,0-55.7,25-55.7,55.7s25,55.7,55.7,55.7,55.7-25,55.7-55.7-25-55.7-55.7-55.7Z"/>
          </g>
        </g>
        <g>
          <rect class="cls-4" x="221.6" y="402.3" width="154.2" height="154.2" rx="20.7" ry="20.7"/>
          <g class="cls-3">
            <g>
              <path d="M298.8,502c-17.9,0-32.5-14.6-32.5-32.5s14.6-32.5,32.5-32.5,32.5,14.6,32.5,32.5-14.6,32.5-32.5,32.5ZM298.8,441.1c-15.7,0-28.5,12.8-28.5,28.5s12.8,28.5,28.5,28.5,28.5-12.8,28.5-28.5-12.8-28.5-28.5-28.5Z"/>
              <path d="M298.8,621.5c-30.7,0-55.7-25-55.7-55.7s25-55.7,55.7-55.7,55.7,25,55.7,55.7-25,55.7-55.7,55.7ZM298.8,514c-28.5,0-51.7,23.2-51.7,51.7s23.2,51.7,51.7,51.7,51.7-23.2,51.7-51.7-23.2-51.7-51.7-51.7Z"/>
            </g>
          </g>
        </g>
        <path class="cls-4" d="M501.6,291.2c0,1.1-.9,2-2,2h-77.8l15.8,15.8c.8.8.8,2,0,2.8-.4.4-.9.6-1.4.6s-1-.2-1.4-.6l-19.2-19.2s0,0,0,0l-1.4-1.4,1.4-1.4s0,0,0,0l19.2-19.2c.8-.8,2-.8,2.8,0,.8.8.8,2,0,2.8l-15.8,15.8h77.8c1.1,0,2,.9,2,2ZM184.5,289.8s0,0,0,0l-19.2-19.2c-.8-.8-2-.8-2.8,0-.8.8-.8,2,0,2.8l15.8,15.8h-77.9c-1.1,0-2,.9-2,2s.9,2,2,2h77.9l-15.8,15.8c-.8.8-.8,2,0,2.8.4.4.9.6,1.4.6s1-.2,1.4-.6l19.2-19.2s0,0,0,0l1.4-1.4-1.4-1.4Z"/>
        <path class="cls-6" d="M355.2,182.1h-112.9c-12.5,0-22.7-10.2-22.7-22.7V46.5c0-12.5,10.2-22.7,22.7-22.7h112.9c12.5,0,22.7,10.2,22.7,22.7v112.9c0,12.5-10.2,22.7-22.7,22.7ZM242.3,27.8c-10.3,0-18.7,8.4-18.7,18.7v112.9c0,10.3,8.4,18.7,18.7,18.7h112.9c10.3,0,18.7-8.4,18.7-18.7V46.5c0-10.3-8.4-18.7-18.7-18.7h-112.9Z"/>
        <path d="M355.2,370.3h-112.9c-12.5,0-22.7-10.2-22.7-22.7v-112.9c0-12.5,10.2-22.7,22.7-22.7h112.9c12.5,0,22.7,10.2,22.7,22.7v112.9c0,12.5-10.2,22.7-22.7,22.7ZM242.3,216.1c-10.3,0-18.7,8.4-18.7,18.7v112.9c0,10.3,8.4,18.7,18.7,18.7h112.9c10.3,0,18.7-8.4,18.7-18.7v-112.9c0-10.3-8.4-18.7-18.7-18.7h-112.9Z"/>
        <path class="cls-6" d="M355.2,558.5h-112.9c-12.5,0-22.7-10.2-22.7-22.7v-112.9c0-12.5,10.2-22.7,22.7-22.7h112.9c12.5,0,22.7,10.2,22.7,22.7v112.9c0,12.5-10.2,22.7-22.7,22.7ZM242.3,404.3c-10.3,0-18.7,8.4-18.7,18.7v112.9c0,10.3,8.4,18.7,18.7,18.7h112.9c10.3,0,18.7-8.4,18.7-18.7v-112.9c0-10.3-8.4-18.7-18.7-18.7h-112.9Z"/>
      </g>
    </g>
  </g>
</svg>