<?xml version="1.0" encoding="UTF-8"?>
<svg xmlns="http://www.w3.org/2000/svg" version="1.1" viewBox="0 0 600 600">
  <defs>
    <style>
      .cls-1 {
        fill: none;
      }

      .cls-2 {
        fill-rule: evenodd;
      }

      .cls-2, .cls-3 {
        fill: #fff;
      }

      .cls-4 {
        fill: #11875a;
      }

      .cls-5 {
        fill: #d1d1d1;
      }

      .cls-6 {
        fill: #259aff;
      }
    </style>
  </defs>
  <!-- Generator: Adobe Illustrator 28.7.1, SVG Export Plug-In . SVG Version: 1.2.0 Build 142)  -->
  <g>
    <g id="Layer_1">
      <g id="Outlined_-_dark_mode">
        <g>
          <circle class="cls-6" cx="300" cy="292" r="244.9"/>
          <rect class="cls-3" x="89" y="63.9" width="203.6" height="266.5" rx="3.9" ry="3.9"/>
          <rect class="cls-3" x="89" y="63.9" width="203.6" height="266.5" rx="3.9" ry="3.9"/>
          <path class="cls-5" d="M288.7,332.5H93c-3.3,0-5.9-2.7-5.9-5.9V67.9c0-3.3,2.7-5.9,5.9-5.9h195.7c3.3,0,5.9,2.7,5.9,5.9v258.7c0,3.3-2.7,5.9-5.9,5.9ZM93,65.9c-1.1,0-1.9.9-1.9,1.9v258.7c0,1.1.9,1.9,1.9,1.9h195.7c1.1,0,1.9-.9,1.9-1.9V67.9c0-1.1-.9-1.9-1.9-1.9H93Z"/>
          <rect class="cls-5" x="89" y="63.9" width="203.6" height="60.5"/>
          <g>
            <rect class="cls-5" x="160.8" y="157.3" width="100.8" height="10"/>
            <rect class="cls-5" x="160.8" y="180.5" width="79.2" height="10"/>
          </g>
          <g>
            <rect class="cls-5" x="160.8" y="244.5" width="100.8" height="10"/>
            <rect class="cls-5" x="160.8" y="267.8" width="51.4" height="10"/>
          </g>
          <rect class="cls-3" x="194.5" y="174.1" width="203.6" height="266.5" rx="3.9" ry="3.9"/>
          <rect class="cls-3" x="194.5" y="174.1" width="203.6" height="266.5" rx="3.9" ry="3.9"/>
          <path class="cls-5" d="M394.2,172.1h-195.7c-3.3,0-5.9,2.7-5.9,5.9v258.7c0,3.3,2.7,5.9,5.9,5.9h195.7c3.3,0,5.9-2.7,5.9-5.9V178.1c0-3.3-2.7-5.9-5.9-5.9h0ZM396.1,436.8c0,1.1-.9,1.9-1.9,1.9h-195.7c-1.1,0-1.9-.9-1.9-1.9v-202.1h199.6v202.1h-.1ZM367.1,279.4h-141.6v-10h141.6v10ZM367.1,302.7h-141.6v-10h141.6v10ZM367.1,349.3h-141.6v-10h141.6v10ZM367.1,372.6h-141.6v-10h141.6v10ZM297.7,395.9h-72.2v-10h72.2v10Z"/>
          <rect class="cls-3" x="300" y="284.4" width="203.6" height="266.5" rx="3.9" ry="3.9"/>
          <rect class="cls-5" x="331" y="379.6" width="141.6" height="10"/>
          <g>
            <line class="cls-1" x1="331" y1="407.9" x2="472.6" y2="407.9"/>
            <rect class="cls-5" x="331" y="402.9" width="141.6" height="10"/>
          </g>
          <rect class="cls-5" x="331" y="426.2" width="72.2" height="10"/>
          <rect class="cls-4" x="331" y="469.9" width="54" height="18.2"/>
          <path class="cls-3" d="M481.1,254.9v13c0,1.1-.9,2-2,2s-2-.9-2-2v-13c0-22.8-18.5-41.3-41.3-41.3h-8.1l6.6,6.6c.8.8.8,2,0,2.8-.4.4-.9.6-1.4.6s-1-.2-1.4-.6l-10-10h0l-1.4-1.4,1.4-1.4h0l10-10c.8-.8,2-.8,2.8,0s.8,2,0,2.8l-6.6,6.6h8.1c25,0,45.3,20.3,45.3,45.3h0ZM330,101.1h-8.1l6.6-6.6c.8-.8.8-2,0-2.8s-2-.8-2.8,0l-10,10h0l-1.4,1.4,1.4,1.4h0l10,10c.4.4.9.6,1.4.6s1-.2,1.4-.6c.8-.8.8-2,0-2.8l-6.6-6.6h8.1c22.8,0,41.3,18.5,41.3,41.3v13c0,1.1.9,2,2,2s2-.9,2-2v-13c0-25-20.3-45.3-45.3-45.3Z"/>
          <path d="M499.6,282.4h-195.7c-3.3,0-5.9,2.7-5.9,5.9v258.7c0,3.3,2.7,5.9,5.9,5.9h195.7c3.3,0,5.9-2.7,5.9-5.9v-258.7c0-3.3-2.7-5.9-5.9-5.9h0ZM499.6,548.9h-195.7c-1.1,0-1.9-.9-1.9-1.9v-202.1h199.6v202.1c0,1.1-.9,1.9-1.9,1.9h-.1Z"/>
          <path class="cls-2" d="M339.9,301.1l2.5,1.3v-3.6l-2.5.8s-.2-.2-.2-.3l1-3.1h-3.6l1,3.1s-.2.2-.2.3l-2.5-.8v3.6l2.5-1.3c0,.1.2.2.3.3l-1.5,4.3h0c0,.2-.1.5-.1.7,0,1.1.9,2.1,2,2.3h.6c1.1-.2,2-1.1,2-2.3s0-.5-.1-.7h0l-1.5-4.3s.2-.1.2-.2h.1ZM346,307.1c-1,.4-2.2,0-2.6-1.1-.4-1,0-2.1,1.1-2.5,1-.4,2.2,0,2.6,1.1.4,1,0,2.1-1.1,2.5h0ZM339.6,314.2c-1,.4-2.2,0-2.6-1.1-.4-1,0-2.1,1.1-2.5,1-.4,2.2,0,2.6,1.1.4,1,0,2.1-1.1,2.5h0ZM348.7,309.2c.4,1,1.6,1.5,2.6,1.1h0c1-.4,1.5-1.5,1.1-2.5s-1.6-1.5-2.6-1.1-1.5,1.6-1.1,2.5ZM354.9,315.4c-1,.4-2.2,0-2.6-1s0-2.1,1.1-2.5c1-.4,2.2,0,2.6,1.1.4,1,0,2.1-1.1,2.5h0ZM331.7,307.1c1,.4,2.2,0,2.6-1.1.4-1,0-2.1-1.1-2.5-1-.4-2.2,0-2.6,1.1-.4,1,0,2.1,1.1,2.5h0ZM328.9,309.2c-.4,1-1.6,1.5-2.6,1.1h0c-1-.4-1.5-1.5-1.1-2.5s1.6-1.5,2.6-1.1,1.5,1.6,1.1,2.5ZM322.8,315.4c1,.4,2.2,0,2.6-1s0-2.1-1.1-2.5c-1-.4-2.2,0-2.6,1.1-.4,1,0,2.1,1.1,2.5h0ZM352.2,327.8c-4-.6-8.6-.9-13.4-.9h0c-4.8,0-9.3.3-13.3.9-1.1-4.7-2.5-7.4-4-9.3l2.7-.9c-.3,1.3-.3,2,0,2.8.4-.4.9-1.2,1.2-2.4l1.3,4.3c-.8-.5-1.4-.9-2.1-.9,1.2,2.6,2.8,3.3,3.8,3.1,1.2-.2,1.8-1.3,1.6-2.2-.3-1.3-1.6-1.6-2.3-.1-1.2-2.4.8-3.2,2.2-2.4-2-2-2.3-3.7-.6-5.9,2.3,1.7,2.3,3.4,1.3,5.8,1.3-1.5,3.4-.7,2.7,1.7-1-1.5-2.2-.5-2,.8.2,1.2,1.8,2.2,3.8,2,2.9-.3,3.1-2.2,3.2-3.8-.7-.1-2,.5-3.1,2l-.4-4.5c1.2,1.2,2.3,1.4,3.5,1.5-.4-1.2-2.3-3.2-2.3-3.2h5.8s-1.9,2-2.3,3.2c1.2,0,2.3-.3,3.5-1.5l-.4,4.5c-1.1-1.5-2.4-2.2-3.1-2,0,1.6.2,3.6,3.2,3.8,2,.2,3.7-.8,3.8-2,.2-1.4-1.1-2.3-2-.8-.8-2.4,1.3-3.2,2.7-1.7-1-2.4-1-4.1,1.3-5.8,1.6,2.1,1.4,3.9-.6,5.9,1.3-.7,3.4,0,2.2,2.4-.6-1.5-2-1.2-2.3.1-.2.9.4,2,1.6,2.2,1,.2,2.6-.5,3.8-3.1-.7,0-1.3.4-2.1.9l1.3-4.3c.3,1.2.8,2,1.2,2.4.3-.9.3-1.5,0-2.8l2.7.9c-1.4,1.9-2.8,4.6-4,9.3h-.1Z"/>
        </g>
      </g>
    </g>
  </g>
</svg>