<?xml version="1.0" encoding="UTF-8"?>
<svg xmlns="http://www.w3.org/2000/svg" xmlns:xlink="http://www.w3.org/1999/xlink" version="1.1" viewBox="0 0 600 600">
  <defs>
    <style>
      .cls-1 {
        fill-rule: evenodd;
      }

      .cls-1, .cls-2 {
        fill: #fff;
      }

      .cls-3 {
        fill: #259aff;
      }

      .cls-4 {
        fill: #11875a;
      }

      .cls-5 {
        fill: #d1d1d1;
      }

      .cls-6 {
        clip-path: url(#clippath);
      }
    </style>
    <clipPath id="clippath">
      <circle class="cls-3" cx="300" cy="291.2" r="244.9"/>
    </clipPath>
  </defs>
  <!-- Generator: Adobe Illustrator 28.7.1, SVG Export Plug-In . SVG Version: 1.2.0 Build 142)  -->
  <g>
    <g id="Outlined_-_dark_mode">
      <g>
        <g>
          <circle class="cls-3" cx="300" cy="291.2" r="244.9"/>
          <g class="cls-6">
            <rect class="cls-2" x="35.1" y="289.2" width="544.5" height="4"/>
          </g>
        </g>
        <g>
          <rect class="cls-5" x="112" y="85.6" width="194.3" height="401.2" rx="28" ry="28"/>
          <path class="cls-2" d="M138.7,92.2h140.8c11.2,0,20.2,9.1,20.2,20.2v334.3c0,11.2-9.1,20.2-20.2,20.2h-140.8c-11.2,0-20.2-9.1-20.2-20.2V112.5c0-11.2,9.1-20.2,20.2-20.2Z"/>
          <g>
            <rect class="cls-5" x="302.5" y="175.4" width="6.5" height="18.5" rx="3" ry="3"/>
            <rect class="cls-5" x="302.5" y="147.8" width="6.5" height="27" rx="3" ry="3"/>
          </g>
          <path d="M218.4,475.6c0,1.8-1.5,3.3-3.3,3.3h-12c-1.8,0-3.3-1.5-3.3-3.3s1.5-3.3,3.3-3.3h12c1.8,0,3.3,1.5,3.3,3.3Z"/>
          <path d="M117.5,148.8v-36.4c0-11.7,9.5-21.2,21.2-21.2h140.8c11.7,0,21.2,9.5,21.2,21.2v36.4H117.5Z"/>
          <path d="M299.8,112.5v35.4H118.5v-35.4c0-11.2,9.1-20.2,20.2-20.2h140.8c11.2,0,20.2,9.1,20.2,20.2Z"/>
          <path class="cls-1" d="M148.5,111l2.1,1.1v-3.1l-2.1.7c0,0-.1-.2-.2-.2,0,0,.9-2.6.9-2.6h-3.1l.9,2.6c0,0-.1.1-.2.2,0,0-2.1-.6-2.1-.6v3.1l2.1-1.1c0,0,.1.2.2.2l-1.2,3.6h0c0,.2,0,.4,0,.6,0,1,.7,1.8,1.7,1.9h0c0,0,.2,0,.2,0s.2,0,.2,0h0c1-.1,1.7-.9,1.7-1.9s0-.4,0-.6h0s-1.2-3.6-1.2-3.6c0,0,.1-.1.2-.2ZM153.6,116.1c-.9.3-1.8,0-2.2-.9-.4-.8,0-1.8.9-2.1.8-.3,1.8,0,2.2.9.4.8,0,1.8-.9,2.1h0ZM148.3,122c-.9.3-1.8,0-2.2-.9-.4-.8,0-1.8.9-2.1.8-.3,1.8,0,2.2.9.4.8,0,1.8-.9,2.1h0ZM155.9,117.8c.3.8,1.3,1.2,2.2.9h0c.8-.3,1.3-1.3.9-2.1-.4-.8-1.3-1.2-2.2-.9-.9.3-1.3,1.3-.9,2.1ZM161.1,123c-.9.3-1.8,0-2.2-.9-.4-.8,0-1.8.9-2.1.8-.3,1.8,0,2.2.9.4.8,0,1.8-.9,2.1h0ZM141.6,116.1c.9.3,1.8,0,2.2-.9.4-.8,0-1.8-.9-2.1-.8-.3-1.8,0-2.2.9-.4.8,0,1.8.9,2.1h0ZM139.3,117.8c-.3.8-1.3,1.2-2.2.9h0c-.8-.3-1.3-1.3-.9-2.1.4-.8,1.3-1.2,2.2-.9.9.3,1.3,1.3.9,2.1ZM134.1,123c.9.3,1.8,0,2.2-.9.4-.8,0-1.8-.9-2.1-.8-.3-1.8,0-2.2.9-.4.8,0,1.8.9,2.1h0ZM158.9,133.4c-3.4-.5-7.2-.7-11.2-.7h0c-4,0-7.8.3-11.2.7-1-3.9-2.1-6.2-3.3-7.8l2.3-.8c-.2,1.1-.3,1.7,0,2.4.4-.4.7-1,1-2l1.1,3.6c-.7-.5-1.2-.7-1.8-.8,1,2.2,2.4,2.8,3.2,2.6,1-.2,1.5-1.1,1.4-1.9-.2-1.1-1.4-1.4-1.9-.1-1-2,.7-2.7,1.8-2.1-1.7-1.7-1.9-3.1-.5-4.9,1.9,1.4,1.9,2.9,1.1,4.9,1.1-1.3,2.9-.6,2.2,1.4-.8-1.2-1.9-.5-1.7.7.1,1,1.5,1.8,3.2,1.7,2.5-.2,2.6-1.9,2.7-3.2-.6-.1-1.7.4-2.6,1.7l-.3-3.8c1,1,1.9,1.2,2.9,1.2-.3-1-1.9-2.7-1.9-2.7h4.9s-1.6,1.7-1.9,2.7c1,0,1.9-.2,2.9-1.2l-.3,3.8c-.9-1.3-2-1.8-2.6-1.7,0,1.4.2,3,2.7,3.2,1.7.1,3.1-.7,3.2-1.7.2-1.2-.9-1.9-1.7-.7-.6-2,1.1-2.7,2.2-1.4-.9-2-.8-3.4,1.1-4.9,1.4,1.8,1.2,3.3-.5,4.9,1.1-.6,2.8,0,1.8,2.1-.5-1.3-1.7-1-1.9.1-.2.8.3,1.7,1.4,1.9.8.2,2.2-.4,3.2-2.6-.6,0-1.1.3-1.8.8l1.1-3.6c.3,1,.6,1.7,1,2,.3-.7.2-1.3,0-2.4l2.3.8c-1.2,1.6-2.4,3.9-3.3,7.8Z"/>
          <rect class="cls-5" x="133.1" y="168.9" width="151.4" height="166.6" rx="6.5" ry="6.5"/>
          <rect class="cls-5" x="133.1" y="349.4" width="151.4" height="96.6" rx="6.5" ry="6.5"/>
        </g>
        <circle class="cls-4" cx="414.9" cy="151.4" r="83"/>
        <path d="M499.9,151.4c0-46.9-38.1-85-85-85s-85,38.1-85,85,37,83.9,83,84.9v52.9h4v-52.9c45.9-1.1,83-38.7,83-84.9ZM416.9,232.3v-9.6l31.6-31.6c.8-.8.8-2,0-2.8-.8-.8-2-.8-2.8,0l-28.8,28.8v-65.7c0-1.1-.9-2-2-2s-2,.9-2,2v33.5l-28.8-28.8c-.8-.8-2-.8-2.8,0-.8.8-.8,2,0,2.8l31.6,31.6v41.8c-43.7-1.1-79-37-79-80.9s36.3-81,81-81,81,36.3,81,81-35.3,79.9-79,80.9Z"/>
      </g>
    </g>
  </g>
</svg>