<svg width="246" height="366" viewBox="0 0 246 366" fill="none" xmlns="http://www.w3.org/2000/svg">
<path d="M18 34C18 25.1634 25.1634 18 34 18H212C220.837 18 228 25.1634 228 34V332C228 340.837 220.837 348 212 348H34C25.1634 348 18 340.837 18 332V34Z" fill="#F2F2F7"/>
<path fill-rule="evenodd" clip-rule="evenodd" d="M34 0H212C230.778 0 246 15.2223 246 34V332C246 350.778 230.778 366 212 366H34C15.2223 366 0 350.778 0 332V34C0 15.2223 15.2223 0 34 0ZM34 18C25.1634 18 18 25.1634 18 34V332C18 340.837 25.1634 348 34 348H212C220.837 348 228 340.837 228 332V34C228 25.1634 220.837 18 212 18H34Z" fill="#505A5F"/>
<circle cx="123" cy="37" r="9" fill="#505A5F"/>
<rect x="28" y="66" width="190" height="40" rx="12" fill="white"/>
<rect x="28" y="121" width="190" height="40" rx="12" fill="white"/>
<rect x="28" y="176" width="190" height="40" rx="12" fill="white"/>
<path fill-rule="evenodd" clip-rule="evenodd" d="M47.7944 88.8359H52.7207L53.4814 91.3037H56.4873L52.0713 78H48.5366L44.1855 91.3037H47.043L47.7944 88.8359ZM51.9971 86.4609H48.5181L50.2344 80.8389H50.2715L51.9971 86.4609ZM80.0239 78H82.5845V88.604C82.5845 88.8143 82.6432 88.9751 82.7607 89.0864C82.8844 89.1978 83.0793 89.2534 83.3452 89.2534C83.4689 89.2534 83.5741 89.2472 83.6606 89.2349C83.7534 89.2163 83.8709 89.1916 84.0132 89.1606L84.2173 91.3408C84.0441 91.3656 83.8586 91.3903 83.6606 91.415C83.4937 91.4336 83.2988 91.4491 83.0762 91.4614C82.8597 91.48 82.634 91.4893 82.3989 91.4893C82.034 91.4893 81.7062 91.4429 81.4155 91.3501C81.1248 91.2573 80.8743 91.1213 80.6641 90.9419C80.46 90.7563 80.3022 90.5275 80.1909 90.2554C80.0796 89.9832 80.0239 89.6678 80.0239 89.3091V78ZM86.6572 92.4634C86.9479 92.4634 87.1613 92.4108 87.2974 92.3057C87.4396 92.2005 87.5509 92.0304 87.6313 91.7954L87.7241 91.4893L84.2822 81.3677H87.1304L89.1064 88.2236L90.7485 81.3677H93.5596L90.2104 92.5376C90.0991 92.9087 89.9445 93.2272 89.7466 93.4932C89.5487 93.7591 89.3136 93.9756 89.0415 94.1426C88.7694 94.3158 88.4663 94.4425 88.1323 94.5229C87.8045 94.6034 87.452 94.6436 87.0747 94.6436C86.9201 94.6436 86.7407 94.6374 86.5366 94.625C86.3387 94.6126 86.1315 94.5941 85.915 94.5693C85.7048 94.5508 85.4945 94.526 85.2842 94.4951C85.0801 94.4642 84.8914 94.4271 84.7183 94.3838L85.2007 92.2871C85.3491 92.3242 85.5037 92.3551 85.6646 92.3799C85.8068 92.4046 85.9614 92.4232 86.1284 92.4355C86.3016 92.4541 86.4779 92.4634 86.6572 92.4634ZM68.9097 94.4395H71.4702V90.4502C71.6063 90.5986 71.7578 90.7378 71.9248 90.8677C72.0918 90.9914 72.2743 91.0996 72.4722 91.1924C72.6701 91.2852 72.8866 91.3563 73.1216 91.4058C73.3628 91.4614 73.6287 91.4893 73.9194 91.4893C74.575 91.4893 75.175 91.3594 75.7192 91.0996C76.2635 90.8398 76.7305 90.4811 77.1201 90.0234C77.5098 89.5658 77.8128 89.0215 78.0293 88.3906C78.2458 87.7598 78.354 87.0763 78.354 86.3403C78.354 85.6043 78.2489 84.9209 78.0386 84.29C77.8283 83.6592 77.5314 83.1149 77.1479 82.6572C76.7645 82.1934 76.3037 81.8315 75.7656 81.5718C75.2337 81.3058 74.64 81.1729 73.9844 81.1729C73.403 81.1729 72.9082 81.2749 72.5 81.479C72.0918 81.6831 71.7485 81.9305 71.4702 82.2212V81.3677H68.9097V94.4395ZM71.5352 88.001C71.4424 87.7721 71.396 87.5247 71.396 87.2588V85.4126C71.396 85.1466 71.4424 84.8993 71.5352 84.6704C71.6341 84.4416 71.7733 84.2437 71.9526 84.0767C72.132 83.9097 72.3454 83.7798 72.5928 83.687C72.8464 83.5942 73.1309 83.5479 73.4463 83.5479C73.8112 83.5479 74.1328 83.6159 74.4111 83.752C74.6956 83.888 74.9338 84.0798 75.1255 84.3271C75.3172 84.5684 75.4626 84.856 75.5615 85.1899C75.6605 85.5239 75.71 85.8888 75.71 86.2847V86.4053C75.71 86.8011 75.6605 87.166 75.5615 87.5C75.4626 87.8278 75.3172 88.1123 75.1255 88.3535C74.9338 88.5947 74.6956 88.7834 74.4111 88.9194C74.1328 89.0493 73.8112 89.1143 73.4463 89.1143C73.1309 89.1143 72.8464 89.0679 72.5928 88.9751C72.3454 88.8823 72.132 88.7524 71.9526 88.5854C71.7733 88.4185 71.6341 88.2236 71.5352 88.001ZM60.3188 94.4395H57.7583V81.3677H60.3188V82.2212C60.5972 81.9305 60.9404 81.6831 61.3486 81.479C61.7568 81.2749 62.2516 81.1729 62.833 81.1729C63.4886 81.1729 64.0824 81.3058 64.6143 81.5718C65.1523 81.8315 65.6131 82.1934 65.9966 82.6572C66.38 83.1149 66.6769 83.6592 66.8872 84.29C67.0975 84.9209 67.2026 85.6043 67.2026 86.3403C67.2026 87.0763 67.0944 87.7598 66.8779 88.3906C66.6615 89.0215 66.3584 89.5658 65.9688 90.0234C65.5791 90.4811 65.1121 90.8398 64.5679 91.0996C64.0236 91.3594 63.4237 91.4893 62.7681 91.4893C62.4774 91.4893 62.2114 91.4614 61.9702 91.4058C61.7352 91.3563 61.5187 91.2852 61.3208 91.1924C61.1229 91.0996 60.9404 90.9914 60.7734 90.8677C60.6064 90.7378 60.4549 90.5986 60.3188 90.4502V94.4395ZM60.2446 87.2588C60.2446 87.5247 60.291 87.7721 60.3838 88.001C60.4827 88.2236 60.6219 88.4185 60.8013 88.5854C60.9806 88.7524 61.194 88.8823 61.4414 88.9751C61.695 89.0679 61.9795 89.1143 62.2949 89.1143C62.6598 89.1143 62.9814 89.0493 63.2598 88.9194C63.5443 88.7834 63.7824 88.5947 63.9741 88.3535C64.1659 88.1123 64.3112 87.8278 64.4102 87.5C64.5091 87.166 64.5586 86.8011 64.5586 86.4053V86.2847C64.5586 85.8888 64.5091 85.5239 64.4102 85.1899C64.3112 84.856 64.1659 84.5684 63.9741 84.3271C63.7824 84.0798 63.5443 83.888 63.2598 83.752C62.9814 83.6159 62.6598 83.5479 62.2949 83.5479C61.9795 83.5479 61.695 83.5942 61.4414 83.687C61.194 83.7798 60.9806 83.9097 60.8013 84.0767C60.6219 84.2437 60.4827 84.4416 60.3838 84.6704C60.291 84.8993 60.2446 85.1466 60.2446 85.4126V87.2588Z" fill="#144E81"/>
<path d="M200.928 86.4541C200.928 86.7944 200.812 87.0767 200.538 87.3423L194.146 93.5928C193.931 93.8086 193.673 93.9165 193.366 93.9165C192.744 93.9165 192.237 93.4185 192.237 92.7959C192.237 92.4805 192.37 92.2065 192.594 91.9824L198.272 86.4458L192.594 80.9258C192.37 80.7017 192.237 80.4194 192.237 80.1123C192.237 79.4897 192.744 79 193.366 79C193.673 79 193.931 79.0996 194.146 79.3154L200.538 85.5659C200.804 85.8315 200.928 86.1138 200.928 86.4541Z" fill="#144E81"/>
<path d="M59.5581 146.083H56.9976V136.147H59.5581V146.083Z" fill="#144E81"/>
<path d="M56.7285 133.54C56.7285 133.33 56.7687 133.132 56.8491 132.946C56.9295 132.755 57.0378 132.591 57.1738 132.455C57.3161 132.312 57.48 132.201 57.6655 132.121C57.8511 132.04 58.0521 132 58.2686 132C58.4788 132 58.6768 132.04 58.8623 132.121C59.054 132.201 59.2179 132.312 59.354 132.455C59.4963 132.591 59.6076 132.755 59.688 132.946C59.7684 133.132 59.8086 133.33 59.8086 133.54C59.8086 133.757 59.7684 133.958 59.688 134.143C59.6076 134.329 59.4963 134.493 59.354 134.635C59.2179 134.771 59.054 134.879 58.8623 134.959C58.6768 135.04 58.4788 135.08 58.2686 135.08C58.0521 135.08 57.8511 135.04 57.6655 134.959C57.48 134.879 57.3161 134.771 57.1738 134.635C57.0378 134.493 56.9295 134.329 56.8491 134.143C56.7687 133.958 56.7285 133.757 56.7285 133.54Z" fill="#144E81"/>
<path d="M86.6851 146.083H89.2456V136.147H86.6851V146.083Z" fill="#144E81"/>
<path d="M86.5366 132.946C86.4562 133.132 86.416 133.33 86.416 133.54C86.416 133.757 86.4562 133.958 86.5366 134.143C86.617 134.329 86.7253 134.493 86.8613 134.635C87.0036 134.771 87.1675 134.879 87.353 134.959C87.5386 135.04 87.7396 135.08 87.9561 135.08C88.1663 135.08 88.3643 135.04 88.5498 134.959C88.7415 134.879 88.9054 134.771 89.0415 134.635C89.1838 134.493 89.2951 134.329 89.3755 134.143C89.4559 133.958 89.4961 133.757 89.4961 133.54C89.4961 133.33 89.4559 133.132 89.3755 132.946C89.2951 132.755 89.1838 132.591 89.0415 132.455C88.9054 132.312 88.7415 132.201 88.5498 132.121C88.3643 132.04 88.1663 132 87.9561 132C87.7396 132 87.5386 132.04 87.353 132.121C87.1675 132.201 87.0036 132.312 86.8613 132.455C86.7253 132.591 86.617 132.755 86.5366 132.946Z" fill="#144E81"/>
<path d="M94.0142 136.147H91.4536V146.083H94.0142V140.646C94.0142 140.263 94.0605 139.929 94.1533 139.645C94.2461 139.36 94.376 139.125 94.543 138.939C94.71 138.748 94.9048 138.605 95.1274 138.513C95.3563 138.42 95.6006 138.374 95.8604 138.374C96.083 138.374 96.2871 138.411 96.4727 138.485C96.6644 138.553 96.8283 138.664 96.9644 138.819C97.1066 138.967 97.2179 139.165 97.2983 139.413C97.3787 139.654 97.4189 139.951 97.4189 140.303V146.083H99.9795V139.375C99.9795 138.893 99.9022 138.445 99.7476 138.03C99.5929 137.616 99.3672 137.254 99.0703 136.945C98.7796 136.636 98.4209 136.394 97.9941 136.221C97.5674 136.042 97.085 135.952 96.5469 135.952C96.2438 135.952 95.9655 135.983 95.7119 136.045C95.4645 136.101 95.2388 136.178 95.0347 136.277C94.8306 136.37 94.6419 136.481 94.4688 136.611C94.3018 136.735 94.1502 136.864 94.0142 137V136.147Z" fill="#144E81"/>
<path d="M72.5835 136.147H75.144V137C75.2801 136.864 75.4316 136.735 75.5986 136.611C75.7718 136.481 75.9604 136.37 76.1646 136.277C76.3687 136.178 76.5944 136.101 76.8418 136.045C77.0954 135.983 77.3737 135.952 77.6768 135.952C78.2148 135.952 78.6973 136.042 79.124 136.221C79.5508 136.394 79.9095 136.636 80.2002 136.945C80.4971 137.254 80.7228 137.616 80.8774 138.03C81.0321 138.445 81.1094 138.893 81.1094 139.375V146.083H78.5488V140.303C78.5488 139.951 78.5086 139.654 78.4282 139.413C78.3478 139.165 78.2365 138.967 78.0942 138.819C77.9582 138.664 77.7943 138.553 77.6025 138.485C77.417 138.411 77.2129 138.374 76.9902 138.374C76.7305 138.374 76.4862 138.42 76.2573 138.513C76.0347 138.605 75.8398 138.748 75.6729 138.939C75.5059 139.125 75.376 139.36 75.2832 139.645C75.1904 139.929 75.144 140.263 75.144 140.646V146.083H72.5835V136.147Z" fill="#144E81"/>
<path fill-rule="evenodd" clip-rule="evenodd" d="M66.8408 144.988C67.2552 144.821 67.5768 144.599 67.8057 144.32V145.628C67.8057 145.931 67.7469 146.179 67.6294 146.371C67.5181 146.569 67.3665 146.726 67.1748 146.844C66.9893 146.967 66.7728 147.054 66.5254 147.104C66.278 147.159 66.0213 147.187 65.7554 147.187C65.4523 147.187 65.14 147.162 64.8184 147.113C64.5029 147.069 64.1999 147.014 63.9092 146.946C63.6185 146.878 63.3464 146.797 63.0928 146.705C62.8392 146.618 62.6258 146.538 62.4526 146.463L61.729 148.532C62.298 148.786 62.9753 148.996 63.7607 149.163C64.5462 149.336 65.3008 149.423 66.0244 149.423C66.6182 149.423 67.1779 149.358 67.7036 149.228C68.2293 149.104 68.6901 148.903 69.0859 148.625C69.488 148.347 69.8034 147.988 70.0322 147.549C70.2611 147.116 70.3755 146.596 70.3755 145.99V136.147H67.8057V136.871C67.5768 136.592 67.2552 136.37 66.8408 136.203C66.4326 136.036 65.9873 135.952 65.5049 135.952C64.8369 135.952 64.2432 136.07 63.7236 136.305C63.2041 136.54 62.765 136.864 62.4062 137.279C62.0537 137.687 61.7816 138.179 61.5898 138.754C61.4043 139.323 61.3115 139.935 61.3115 140.591C61.3115 141.265 61.4043 141.883 61.5898 142.446C61.7816 143.009 62.0537 143.498 62.4062 143.912C62.765 144.32 63.2041 144.642 63.7236 144.877C64.2432 145.112 64.8369 145.229 65.5049 145.229C65.9873 145.229 66.4326 145.149 66.8408 144.988ZM64.0483 141.556C63.9803 141.265 63.9463 140.956 63.9463 140.628V140.554C63.9463 139.898 64.0978 139.351 64.4009 138.912C64.7101 138.472 65.2111 138.253 65.9038 138.253C66.2625 138.253 66.5625 138.312 66.8037 138.429C67.0511 138.541 67.2521 138.698 67.4067 138.902C67.5614 139.106 67.6727 139.351 67.7407 139.635C67.8088 139.92 67.8428 140.226 67.8428 140.554V140.628C67.8428 141.277 67.6943 141.825 67.3975 142.27C67.1006 142.709 66.6027 142.929 65.9038 142.929C65.5513 142.929 65.2513 142.873 65.0039 142.762C64.7565 142.644 64.5524 142.486 64.3916 142.289C64.237 142.084 64.1226 141.84 64.0483 141.556Z" fill="#144E81"/>
<path d="M46.9131 142.929C46.6657 142.737 46.4554 142.542 46.2822 142.344L44.5288 144.125C44.7948 144.416 45.104 144.688 45.4565 144.942C45.8153 145.195 46.2204 145.424 46.6719 145.628C47.1296 145.833 47.6367 145.99 48.1934 146.102C48.7562 146.213 49.3654 146.269 50.021 146.269C50.6704 146.269 51.2951 146.179 51.895 146C52.495 145.814 53.0238 145.542 53.4814 145.183C53.9391 144.818 54.3071 144.379 54.5854 143.866C54.8638 143.352 55.0029 142.762 55.0029 142.094C55.0029 141.358 54.87 140.755 54.604 140.285C54.3381 139.808 53.9886 139.425 53.5557 139.134C53.1289 138.837 52.6527 138.615 52.127 138.466C51.6012 138.312 51.0724 138.185 50.5405 138.086L50.3271 138.049C49.9313 137.968 49.5726 137.888 49.251 137.808C48.9294 137.727 48.6541 137.628 48.4253 137.511C48.1965 137.387 48.0171 137.232 47.8872 137.047C47.7635 136.861 47.7017 136.629 47.7017 136.351C47.7017 135.924 47.8965 135.578 48.2861 135.312C48.682 135.046 49.2293 134.913 49.9282 134.913C50.5343 134.913 51.1219 135.028 51.6909 135.256C52.2661 135.485 52.7362 135.801 53.1011 136.203L54.8916 134.533C54.3721 133.951 53.6886 133.484 52.8413 133.132C52.0002 132.773 51.0415 132.594 49.9653 132.594C49.0562 132.594 48.2799 132.717 47.6367 132.965C46.9997 133.212 46.4771 133.531 46.0688 133.92C45.6668 134.304 45.373 134.728 45.1875 135.191C45.002 135.649 44.9092 136.088 44.9092 136.509C44.9092 137.232 45.0483 137.832 45.3267 138.309C45.605 138.779 45.9668 139.165 46.4121 139.468C46.8574 139.771 47.3553 140.003 47.9058 140.164C48.4562 140.325 49.0098 140.455 49.5664 140.554L49.9839 140.628C50.757 140.77 51.3198 140.965 51.6724 141.212C52.0311 141.46 52.2104 141.822 52.2104 142.298C52.2104 142.756 52.0063 143.145 51.5981 143.467C51.1961 143.782 50.6147 143.94 49.854 143.94C49.4458 143.94 49.0654 143.897 48.7129 143.81C48.3604 143.717 48.0326 143.597 47.7295 143.448C47.4326 143.294 47.1605 143.12 46.9131 142.929Z" fill="#144E81"/>
<path d="M200.928 141.454C200.928 141.794 200.812 142.077 200.538 142.342L194.146 148.593C193.931 148.809 193.673 148.917 193.366 148.917C192.744 148.917 192.237 148.418 192.237 147.796C192.237 147.48 192.37 147.207 192.594 146.982L198.272 141.446L192.594 135.926C192.37 135.702 192.237 135.419 192.237 135.112C192.237 134.49 192.744 134 193.366 134C193.673 134 193.931 134.1 194.146 134.315L200.538 140.566C200.804 140.832 200.928 141.114 200.928 141.454Z" fill="#144E81"/>
<path d="M45.3916 189.779H54.3535V192.219H48.082V195.049H53.8618V197.479H48.082V203.083H45.3916V189.779Z" fill="#144E81"/>
<path d="M58.5933 203.083H56.0327V193.147H58.5933V203.083ZM55.7637 190.54C55.7637 190.33 55.8039 190.132 55.8843 189.946C55.9647 189.755 56.0729 189.591 56.209 189.455C56.3512 189.312 56.5151 189.201 56.7007 189.121C56.8862 189.04 57.0872 189 57.3037 189C57.514 189 57.7119 189.04 57.8975 189.121C58.0892 189.201 58.2531 189.312 58.3892 189.455C58.5314 189.591 58.6427 189.755 58.7231 189.946C58.8035 190.132 58.8438 190.33 58.8438 190.54C58.8438 190.757 58.8035 190.958 58.7231 191.143C58.6427 191.329 58.5314 191.493 58.3892 191.635C58.2531 191.771 58.0892 191.879 57.8975 191.959C57.7119 192.04 57.514 192.08 57.3037 192.08C57.0872 192.08 56.8862 192.04 56.7007 191.959C56.5151 191.879 56.3512 191.771 56.209 191.635C56.0729 191.493 55.9647 191.329 55.8843 191.143C55.8039 190.958 55.7637 190.757 55.7637 190.54Z" fill="#144E81"/>
<path d="M60.8013 193.147H63.3618V194C63.4979 193.864 63.6494 193.735 63.8164 193.611C63.9896 193.481 64.1782 193.37 64.3823 193.277C64.5864 193.178 64.8122 193.101 65.0596 193.045C65.3132 192.983 65.5915 192.952 65.8945 192.952C66.4326 192.952 66.915 193.042 67.3418 193.221C67.7686 193.394 68.1273 193.636 68.418 193.945C68.7148 194.254 68.9406 194.616 69.0952 195.03C69.2498 195.445 69.3271 195.893 69.3271 196.375V203.083H66.7666V197.303C66.7666 196.951 66.7264 196.654 66.646 196.413C66.5656 196.165 66.4543 195.967 66.312 195.819C66.1759 195.664 66.012 195.553 65.8203 195.485C65.6348 195.411 65.4307 195.374 65.208 195.374C64.9482 195.374 64.7039 195.42 64.4751 195.513C64.2524 195.605 64.0576 195.748 63.8906 195.939C63.7236 196.125 63.5938 196.36 63.501 196.645C63.4082 196.929 63.3618 197.263 63.3618 197.646V203.083H60.8013V193.147Z" fill="#144E81"/>
<path d="M77.853 203.083V202.229C77.717 202.378 77.5654 202.517 77.3984 202.647C77.2376 202.771 77.0552 202.879 76.8511 202.972C76.6532 203.064 76.4336 203.136 76.1924 203.185C75.9574 203.241 75.6945 203.269 75.4038 203.269C74.7482 203.269 74.1483 203.139 73.604 202.879C73.0597 202.619 72.5928 202.26 72.2031 201.803C71.8135 201.345 71.5104 200.801 71.2939 200.17C71.0837 199.539 70.9785 198.856 70.9785 198.12C70.9785 197.384 71.0837 196.7 71.2939 196.069C71.5042 195.438 71.798 194.894 72.1753 194.437C72.5588 193.973 73.0195 193.611 73.5576 193.351C74.0957 193.085 74.6925 192.952 75.3481 192.952C75.9295 192.952 76.4212 193.054 76.8232 193.258C77.2314 193.456 77.5747 193.704 77.853 194V189.779H80.4136V203.083H77.853ZM77.9272 197.192C77.9272 196.926 77.8778 196.679 77.7788 196.45C77.686 196.221 77.55 196.023 77.3706 195.856C77.1912 195.689 76.9748 195.559 76.7212 195.466C76.4738 195.374 76.1924 195.327 75.877 195.327C75.512 195.327 75.1873 195.395 74.9028 195.531C74.6245 195.667 74.3895 195.859 74.1978 196.106C74.006 196.348 73.8607 196.635 73.7617 196.969C73.6628 197.303 73.6133 197.668 73.6133 198.064V198.185C73.6133 198.58 73.6628 198.945 73.7617 199.279C73.8607 199.607 74.006 199.892 74.1978 200.133C74.3895 200.374 74.6245 200.563 74.9028 200.699C75.1873 200.829 75.512 200.894 75.877 200.894C76.1924 200.894 76.4738 200.847 76.7212 200.754C76.9748 200.662 77.1912 200.532 77.3706 200.365C77.55 200.198 77.686 200.003 77.7788 199.78C77.8778 199.551 77.9272 199.304 77.9272 199.038V197.192Z" fill="#144E81"/>
<path d="M200.928 196.454C200.928 196.794 200.812 197.077 200.538 197.342L194.146 203.593C193.931 203.809 193.673 203.917 193.366 203.917C192.744 203.917 192.237 203.418 192.237 202.796C192.237 202.48 192.37 202.207 192.594 201.982L198.272 196.446L192.594 190.926C192.37 190.702 192.237 190.419 192.237 190.112C192.237 189.49 192.744 189 193.366 189C193.673 189 193.931 189.1 194.146 189.315L200.538 195.566C200.804 195.832 200.928 196.114 200.928 196.454Z" fill="#144E81"/>
<rect x="28" y="287" width="190" height="46" rx="12" fill="black" fill-opacity="0.2"/>
<rect x="28" y="283" width="190" height="46" rx="12" fill="#CCE2D8"/>
<path d="M72.2148 309.316C72.4336 309.566 72.6992 309.812 73.0117 310.055C73.3242 310.297 73.668 310.516 74.043 310.711C74.4258 310.898 74.8398 311.051 75.2852 311.168C75.7305 311.277 76.2109 311.332 76.7266 311.332C77.6875 311.332 78.4219 311.133 78.9297 310.734C79.4453 310.328 79.7031 309.836 79.7031 309.258C79.7031 308.656 79.4766 308.199 79.0234 307.887C78.5781 307.574 77.8672 307.328 76.8906 307.148L76.3633 307.055C75.6602 306.93 74.9609 306.766 74.2656 306.562C73.5703 306.359 72.9414 306.066 72.3789 305.684C71.8164 305.301 71.3594 304.812 71.0078 304.219C70.6562 303.617 70.4805 302.859 70.4805 301.945C70.4805 301.414 70.5977 300.859 70.832 300.281C71.0664 299.695 71.4375 299.16 71.9453 298.676C72.4609 298.184 73.1211 297.781 73.9258 297.469C74.7383 297.156 75.7188 297 76.8672 297C78.2266 297 79.4375 297.227 80.5 297.68C81.5703 298.125 82.4336 298.715 83.0898 299.449L80.8281 301.559C80.3672 301.051 79.7734 300.652 79.0469 300.363C78.3281 300.074 77.5859 299.93 76.8203 299.93C75.9375 299.93 75.2461 300.098 74.7461 300.434C74.2539 300.77 74.0078 301.207 74.0078 301.746C74.0078 302.098 74.0859 302.391 74.2422 302.625C74.4062 302.859 74.6328 303.055 74.9219 303.211C75.2109 303.359 75.5586 303.484 75.9648 303.586C76.3711 303.688 76.8242 303.789 77.3242 303.891L77.5938 303.938C78.2656 304.062 78.9336 304.223 79.5977 304.418C80.2617 304.605 80.8633 304.887 81.4023 305.262C81.9492 305.629 82.3906 306.113 82.7266 306.715C83.0625 307.309 83.2305 308.07 83.2305 309C83.2305 309.844 83.0547 310.59 82.7031 311.238C82.3516 311.887 81.8867 312.441 81.3086 312.902C80.7305 313.355 80.0625 313.699 79.3047 313.934C78.5469 314.16 77.7578 314.273 76.9375 314.273C76.1094 314.273 75.3398 314.203 74.6289 314.062C73.9258 313.922 73.2852 313.723 72.707 313.465C72.1367 313.207 71.625 312.918 71.1719 312.598C70.7266 312.277 70.3359 311.934 70 311.566L72.2148 309.316Z" fill="#00703C"/>
<path d="M90.3789 310.301C90.3789 310.449 90.3984 310.59 90.4375 310.723C90.4766 310.855 90.543 310.973 90.6367 311.074C90.7383 311.168 90.8789 311.242 91.0586 311.297C91.2383 311.352 91.4688 311.379 91.75 311.379C91.8672 311.379 92 311.375 92.1484 311.367C92.2969 311.352 92.4453 311.336 92.5938 311.32C92.7422 311.305 92.8789 311.285 93.0039 311.262C93.1367 311.238 93.2461 311.219 93.332 311.203L93.625 314.062C93.3203 314.102 93.0039 314.137 92.6758 314.168C92.3945 314.199 92.082 314.223 91.7383 314.238C91.3945 314.262 91.0469 314.273 90.6953 314.273C89.5781 314.273 88.707 314.02 88.082 313.512C87.457 313.004 87.1445 312.195 87.1445 311.086V304.301H84.8828V301.488H87.1445V297.938L90.3789 297.07V301.488H93.6719V304.301H90.3789V310.301Z" fill="#00703C"/>
<path d="M99.7656 308.941C99.3672 309.004 99.0469 309.145 98.8047 309.363C98.5625 309.574 98.4414 309.863 98.4414 310.23C98.4414 310.637 98.5898 310.988 98.8867 311.285C99.1836 311.574 99.6211 311.719 100.199 311.719C100.809 311.719 101.289 311.543 101.641 311.191C101.992 310.84 102.168 310.375 102.168 309.797V308.531L99.7656 308.941ZM102.695 312.855C102.562 313.004 102.398 313.164 102.203 313.336C102.016 313.5 101.789 313.652 101.523 313.793C101.266 313.926 100.961 314.039 100.609 314.133C100.258 314.227 99.8633 314.273 99.4258 314.273C98.8008 314.273 98.2227 314.176 97.6914 313.98C97.168 313.777 96.707 313.496 96.3086 313.137C95.9102 312.777 95.5977 312.363 95.3711 311.895C95.1445 311.418 95.0312 310.902 95.0312 310.348C95.0312 309.34 95.3438 308.516 95.9688 307.875C96.5938 307.234 97.457 306.832 98.5586 306.668L102.168 306.141V305.906C102.168 305.344 101.996 304.898 101.652 304.57C101.309 304.242 100.75 304.078 99.9766 304.078C99.6562 304.078 99.332 304.117 99.0039 304.195C98.6758 304.266 98.3594 304.348 98.0547 304.441C97.7578 304.535 97.4805 304.645 97.2227 304.77C96.9648 304.887 96.7383 304.992 96.543 305.086L95.2773 302.613C95.9961 302.215 96.793 301.887 97.668 301.629C98.5508 301.371 99.4648 301.242 100.41 301.242C100.988 301.242 101.57 301.305 102.156 301.43C102.75 301.547 103.285 301.766 103.762 302.086C104.246 302.406 104.641 302.844 104.945 303.398C105.25 303.945 105.402 304.645 105.402 305.496V310.652C105.402 311.02 105.496 311.293 105.684 311.473C105.879 311.645 106.145 311.805 106.48 311.953L105.016 314.273C104.422 314.211 103.945 314.059 103.586 313.816C103.227 313.566 102.93 313.246 102.695 312.855Z" fill="#00703C"/>
<path d="M115.164 304.629H114.824C114.363 304.629 113.922 304.676 113.5 304.77C113.086 304.863 112.719 305.035 112.398 305.285C112.078 305.527 111.82 305.863 111.625 306.293C111.438 306.723 111.344 307.273 111.344 307.945V314.039H108.109V301.488H111.344V302.906C111.477 302.695 111.648 302.492 111.859 302.297C112.07 302.102 112.316 301.93 112.598 301.781C112.879 301.625 113.195 301.5 113.547 301.406C113.898 301.312 114.277 301.266 114.684 301.266H115.164V304.629Z" fill="#00703C"/>
<path d="M121.809 310.301C121.809 310.449 121.828 310.59 121.867 310.723C121.906 310.855 121.973 310.973 122.066 311.074C122.168 311.168 122.309 311.242 122.488 311.297C122.668 311.352 122.898 311.379 123.18 311.379C123.297 311.379 123.43 311.375 123.578 311.367C123.727 311.352 123.875 311.336 124.023 311.32C124.172 311.305 124.309 311.285 124.434 311.262C124.566 311.238 124.676 311.219 124.762 311.203L125.055 314.062C124.75 314.102 124.434 314.137 124.105 314.168C123.824 314.199 123.512 314.223 123.168 314.238C122.824 314.262 122.477 314.273 122.125 314.273C121.008 314.273 120.137 314.02 119.512 313.512C118.887 313.004 118.574 312.195 118.574 311.086V304.301H116.312V301.488H118.574V297.938L121.809 297.07V301.488H125.102V304.301H121.809V310.301Z" fill="#00703C"/>
<path d="M131.477 301.488H134.711V302.566C134.883 302.395 135.074 302.23 135.285 302.074C135.504 301.91 135.742 301.77 136 301.652C136.258 301.527 136.543 301.43 136.855 301.359C137.176 301.281 137.527 301.242 137.91 301.242C138.59 301.242 139.199 301.355 139.738 301.582C140.277 301.801 140.73 302.105 141.098 302.496C141.473 302.887 141.758 303.344 141.953 303.867C142.148 304.391 142.246 304.957 142.246 305.566V314.039H139.012V306.738C139.012 306.293 138.961 305.918 138.859 305.613C138.758 305.301 138.617 305.051 138.438 304.863C138.266 304.668 138.059 304.527 137.816 304.441C137.582 304.348 137.324 304.301 137.043 304.301C136.715 304.301 136.406 304.359 136.117 304.477C135.836 304.594 135.59 304.773 135.379 305.016C135.168 305.25 135.004 305.547 134.887 305.906C134.77 306.266 134.711 306.688 134.711 307.172V314.039H131.477V301.488Z" fill="#00703C"/>
<path d="M150.473 301.242C151.402 301.242 152.246 301.41 153.004 301.746C153.762 302.074 154.41 302.531 154.949 303.117C155.488 303.703 155.902 304.395 156.191 305.191C156.488 305.988 156.637 306.848 156.637 307.77C156.637 308.699 156.488 309.562 156.191 310.359C155.895 311.148 155.477 311.832 154.938 312.41C154.398 312.988 153.75 313.445 152.992 313.781C152.234 314.109 151.395 314.273 150.473 314.273C149.543 314.273 148.699 314.109 147.941 313.781C147.184 313.445 146.535 312.988 145.996 312.41C145.457 311.832 145.039 311.148 144.742 310.359C144.445 309.562 144.297 308.699 144.297 307.77C144.297 306.848 144.441 305.988 144.73 305.191C145.027 304.395 145.445 303.703 145.984 303.117C146.523 302.531 147.172 302.074 147.93 301.746C148.695 301.41 149.543 301.242 150.473 301.242ZM150.473 311.273C150.934 311.273 151.34 311.188 151.691 311.016C152.051 310.844 152.352 310.605 152.594 310.301C152.836 309.996 153.02 309.633 153.145 309.211C153.27 308.781 153.332 308.312 153.332 307.805V307.723C153.332 307.215 153.27 306.75 153.145 306.328C153.02 305.898 152.836 305.531 152.594 305.227C152.352 304.914 152.051 304.672 151.691 304.5C151.34 304.328 150.934 304.242 150.473 304.242C150.012 304.242 149.602 304.328 149.242 304.5C148.891 304.672 148.594 304.914 148.352 305.227C148.109 305.531 147.926 305.898 147.801 306.328C147.676 306.75 147.613 307.215 147.613 307.723V307.805C147.613 308.312 147.676 308.781 147.801 309.211C147.926 309.633 148.109 309.996 148.352 310.301C148.594 310.605 148.891 310.844 149.242 311.016C149.602 311.188 150.012 311.273 150.473 311.273Z" fill="#00703C"/>
<path d="M170.16 309.938L171.695 301.488H175.117L172.223 314.039H168.379L166.504 305.883L164.512 314.039H160.727L157.82 301.488H161.348L162.836 309.938L165.016 301.488H168.109L170.16 309.938Z" fill="#00703C"/>
</svg>
