<svg width="276" height="366" viewBox="0 0 276 366" fill="none" xmlns="http://www.w3.org/2000/svg">
<path d="M33 34C33 25.1634 40.1634 18 49 18H227C235.837 18 243 25.1634 243 34V332C243 340.837 235.837 348 227 348H49C40.1634 348 33 340.837 33 332V34Z" fill="#F2F2F7"/>
<path fill-rule="evenodd" clip-rule="evenodd" d="M49 0H227C245.778 0 261 15.2223 261 34V332C261 350.778 245.778 366 227 366H49C30.2223 366 15 350.778 15 332V34C15 15.2223 30.2223 0 49 0ZM49 18C40.1634 18 33 25.1634 33 34V332C33 340.837 40.1634 348 49 348H227C235.837 348 243 340.837 243 332V34C243 25.1634 235.837 18 227 18H49Z" fill="#505A5F"/>
<circle cx="138" cy="37" r="9" fill="#505A5F"/>
<path d="M109.07 86.1641H166.927V144.848H109.07V86.1641Z" fill="#505A5F"/>
<path fill-rule="evenodd" clip-rule="evenodd" d="M115.68 92.7812V112.985H135.516V92.7812H115.68ZM130.557 107.934H120.639V97.8323H130.557V107.934Z" fill="#F2F2F7"/>
<path fill-rule="evenodd" clip-rule="evenodd" d="M140.476 92.7812H160.312V112.985H140.476V92.7812ZM155.353 107.934H145.435V97.8323H155.353V107.934Z" fill="#F2F2F7"/>
<path fill-rule="evenodd" clip-rule="evenodd" d="M115.68 118.036H135.516V138.24H115.68V118.036ZM130.557 133.189H120.639V123.087H130.557V133.189Z" fill="#F2F2F7"/>
<path d="M140.476 118.036H150.394V128.138H140.476V118.036Z" fill="#F2F2F7"/>
<path d="M160.312 128.138H150.394V138.24H160.312V128.138Z" fill="#F2F2F7"/>
<path fill-rule="evenodd" clip-rule="evenodd" d="M166.928 80.7857H152.051V75H166.928C173.091 75 178.086 79.9957 178.086 86.1582V101.036H172.301V86.1582C172.301 83.191 169.895 80.7857 166.928 80.7857Z" fill="#505A5F"/>
<path fill-rule="evenodd" clip-rule="evenodd" d="M103.7 86.1615V101.039H97.9141V86.1615C97.9141 79.999 102.91 75.0033 109.072 75.0033H123.95V80.7891H109.072C106.105 80.7891 103.7 83.1944 103.7 86.1615Z" fill="#505A5F"/>
<path fill-rule="evenodd" clip-rule="evenodd" d="M172.3 144.846V129.969H178.086V144.846C178.086 151.009 173.09 156.004 166.928 156.004H152.05V150.219H166.928C169.895 150.219 172.3 147.813 172.3 144.846Z" fill="#505A5F"/>
<path fill-rule="evenodd" clip-rule="evenodd" d="M109.076 150.214H123.953V156H109.076C102.913 156 97.9174 151.004 97.9174 144.842V129.964H103.703V144.842C103.703 147.809 106.108 150.214 109.076 150.214Z" fill="#505A5F"/>
<rect y="182" width="276" height="145" rx="12" fill="black" fill-opacity="0.2"/>
<rect y="178" width="276" height="145" rx="12" fill="#DBD5E9"/>
<path fill-rule="evenodd" clip-rule="evenodd" d="M39 196C27.402 196 18 205.402 18 217C18 228.598 27.402 238 39 238C50.598 238 60 228.598 60 217C60 205.402 50.598 196 39 196ZM16 217C16 204.297 26.2975 194 39 194C51.7025 194 62 204.297 62 217C62 229.703 51.7025 240 39 240C26.2975 240 16 229.703 16 217Z" fill="#3D2375"/>
<path d="M44.7575 212.013C43.9263 212.351 42.9813 211.961 42.6488 211.147C42.3075 210.332 42.7013 209.387 43.5325 209.058C44.3463 208.729 45.2913 209.119 45.6325 209.933C45.9737 210.748 45.58 211.675 44.7663 212.013" fill="#3D2375"/>
<path d="M39.6213 217.785C38.79 218.123 37.845 217.733 37.5125 216.919C37.1713 216.104 37.565 215.159 38.3962 214.83C39.21 214.501 40.155 214.891 40.4963 215.705C40.8375 216.52 40.4437 217.447 39.63 217.785" fill="#3D2375"/>
<path d="M49.08 214.57C48.2488 214.908 47.3038 214.518 46.9713 213.703C46.63 212.889 47.0238 211.944 47.855 211.615C48.6688 211.285 49.6138 211.675 49.955 212.49C50.2963 213.305 49.9025 214.232 49.0887 214.57" fill="#3D2375"/>
<path d="M51.9412 218.782C51.11 219.12 50.165 218.73 49.8325 217.924C49.4912 217.109 49.885 216.165 50.7162 215.835C51.53 215.506 52.475 215.896 52.8162 216.711C53.1575 217.525 52.7638 218.453 51.95 218.791" fill="#3D2375"/>
<path d="M39.8575 207.056L41.8962 208.113V205.132L39.8575 205.773C39.805 205.695 39.735 205.626 39.6562 205.565C39.5775 205.505 40.4788 203 40.4788 203H37.5387L38.3612 205.557C38.2913 205.617 38.2213 205.687 38.16 205.765C38.0987 205.843 36.1213 205.132 36.1213 205.132V208.113L38.16 207.047C38.2213 207.134 38.2912 207.203 38.37 207.255L37.1975 210.757C37.1975 210.757 37.1975 210.765 37.1975 210.774C37.145 210.947 37.11 211.138 37.11 211.329C37.11 212.273 37.8187 213.062 38.7375 213.192H38.7812C38.86 213.201 38.9387 213.209 39.0175 213.209C39.0963 213.209 39.175 213.209 39.2537 213.192H39.2975C40.2163 213.053 40.925 212.273 40.925 211.329C40.925 211.138 40.8988 210.947 40.8375 210.774C40.8375 210.774 40.8375 210.765 40.8375 210.757L39.665 207.255C39.7438 207.195 39.8137 207.125 39.875 207.047" fill="#3D2375"/>
<path d="M33.2162 212.013C34.0475 212.351 34.9925 211.961 35.325 211.147C35.6663 210.332 35.2725 209.387 34.4412 209.058C33.6275 208.729 32.6825 209.119 32.3412 209.933C32 210.748 32.3938 211.675 33.2075 212.013" fill="#3D2375"/>
<path d="M28.8938 214.57C29.725 214.908 30.67 214.518 31.0025 213.703C31.3438 212.889 30.95 211.944 30.1187 211.615C29.305 211.285 28.36 211.675 28.0188 212.49C27.6775 213.305 28.0712 214.232 28.885 214.57" fill="#3D2375"/>
<path d="M26.0325 218.782C26.8638 219.12 27.8088 218.73 28.1412 217.924C28.4825 217.109 28.0887 216.165 27.2575 215.835C26.4437 215.506 25.4988 215.896 25.1575 216.711C24.8162 217.525 25.21 218.453 26.0238 218.791" fill="#3D2375"/>
<path d="M39 228.281C42.8675 228.281 46.525 228.541 49.7887 229C50.7163 225.143 51.845 222.933 53 221.365L50.8125 220.593C51.0312 221.694 51.0662 222.205 50.8213 222.916C50.4625 222.569 50.1213 221.919 49.85 220.94L48.7913 224.441C49.4388 223.999 49.9375 223.713 50.5062 223.705C49.5 225.863 48.2313 226.417 47.4175 226.261C46.42 226.079 45.9562 225.195 46.1137 224.45C46.3412 223.393 47.4438 223.115 47.9513 224.346C48.9313 222.361 47.2687 221.746 46.2013 222.335C47.8463 220.706 48.03 219.267 46.7087 217.517C44.8625 218.921 44.8363 220.307 45.6675 222.257C44.5913 221.035 42.9025 221.694 43.515 223.67C44.2937 222.474 45.3263 223.228 45.16 224.363C45.02 225.351 43.7075 226.149 42.0625 226.01C39.7087 225.802 39.5688 224.19 39.5075 222.864C40.085 222.76 41.1263 223.289 42.0188 224.528L42.3425 220.819C41.38 221.815 40.4963 222.006 39.525 222.032C39.8487 221.027 41.345 219.389 41.345 219.389H36.6637C36.6637 219.389 38.1512 221.035 38.4837 222.032C37.5125 221.997 36.6287 221.815 35.6663 220.819L35.99 224.528C36.8825 223.297 37.915 222.76 38.5013 222.864C38.44 224.199 38.3 225.802 35.9463 226.01C34.3013 226.149 32.9888 225.351 32.8488 224.363C32.6825 223.228 33.715 222.474 34.4937 223.67C35.0975 221.694 33.4175 221.035 32.3412 222.257C33.1725 220.307 33.155 218.921 31.3 217.517C29.97 219.267 30.1625 220.706 31.8075 222.335C30.74 221.746 29.0688 222.37 30.0575 224.346C30.5737 223.115 31.6675 223.393 31.895 224.45C32.0525 225.195 31.5887 226.079 30.5912 226.261C29.7775 226.409 28.5087 225.854 27.5025 223.705C28.0712 223.722 28.57 223.999 29.2175 224.441L28.1587 220.94C27.8875 221.919 27.5463 222.569 27.1875 222.916C26.9425 222.205 26.9775 221.694 27.1875 220.593L25 221.365C26.1637 222.933 27.2925 225.143 28.2113 229C31.475 228.541 35.1325 228.281 38.9912 228.281" fill="#3D2375"/>
<path fill-rule="evenodd" clip-rule="evenodd" d="M16 257C16 256.448 16.4477 256 17 256H261C261.552 256 262 256.448 262 257C262 257.552 261.552 258 261 258H17C16.4477 258 16 257.552 16 257Z" fill="#3D2375"/>
<path d="M26.7812 287.922H20.5586L19.6094 291.039H16L21.4961 274.234H25.9609L31.5391 291.039H27.7422L26.7812 287.922ZM21.4727 284.922H25.8672L23.6875 277.82H23.6406L21.4727 284.922Z" fill="#3D2375"/>
<path d="M40.9844 274.234C41.6875 274.234 42.3398 274.34 42.9414 274.551C43.543 274.754 44.0664 275.047 44.5117 275.43C44.957 275.812 45.3047 276.277 45.5547 276.824C45.8047 277.363 45.9297 277.965 45.9297 278.629C45.9297 278.973 45.8789 279.312 45.7773 279.648C45.6836 279.984 45.543 280.301 45.3555 280.598C45.168 280.887 44.9414 281.152 44.6758 281.395C44.4102 281.637 44.1094 281.836 43.7734 281.992C44.0469 282.086 44.3633 282.227 44.7227 282.414C45.0898 282.602 45.4375 282.859 45.7656 283.188C46.0938 283.516 46.3711 283.922 46.5977 284.406C46.8242 284.883 46.9375 285.461 46.9375 286.141C46.9375 286.992 46.7734 287.727 46.4453 288.344C46.125 288.961 45.6875 289.469 45.1328 289.867C44.5859 290.266 43.9414 290.562 43.1992 290.758C42.4648 290.945 41.6875 291.039 40.8672 291.039H33.5078V274.234H40.9844ZM43.457 286.023C43.457 285.57 43.375 285.199 43.2109 284.91C43.0469 284.621 42.8281 284.391 42.5547 284.219C42.2891 284.047 41.9844 283.93 41.6406 283.867C41.2969 283.797 40.9453 283.762 40.5859 283.762H36.9062V288.355H40.5859C40.9453 288.355 41.2969 288.32 41.6406 288.25C41.9844 288.18 42.2891 288.055 42.5547 287.875C42.8281 287.695 43.0469 287.457 43.2109 287.16C43.375 286.863 43.457 286.484 43.457 286.023ZM42.5078 278.969C42.5078 278.328 42.3047 277.828 41.8984 277.469C41.4922 277.109 40.8359 276.93 39.9297 276.93H36.9062V280.891H39.9297C40.8203 280.891 41.4727 280.723 41.8867 280.387C42.3008 280.043 42.5078 279.57 42.5078 278.969Z" fill="#3D2375"/>
<path d="M59.1953 274.234V291.039H55.7148V279.93H52.668V276.859H53.418C53.918 276.859 54.3242 276.816 54.6367 276.73C54.957 276.637 55.207 276.496 55.3867 276.309C55.5664 276.121 55.6875 275.883 55.75 275.594C55.8125 275.297 55.8438 274.941 55.8438 274.527V274.234H59.1953Z" fill="#3D2375"/>
<path d="M68.0078 277.141C67.5469 277.141 67.1445 277.215 66.8008 277.363C66.457 277.512 66.1719 277.719 65.9453 277.984C65.7188 278.25 65.5508 278.562 65.4414 278.922C65.332 279.273 65.2773 279.656 65.2773 280.07L61.7969 279.754C61.8047 278.832 61.9688 278.016 62.2891 277.305C62.6094 276.586 63.0469 275.984 63.6016 275.5C64.1562 275.008 64.8086 274.637 65.5586 274.387C66.3164 274.129 67.1406 274 68.0312 274C68.9609 274 69.8086 274.141 70.5742 274.422C71.3477 274.695 72.0078 275.082 72.5547 275.582C73.1016 276.082 73.5234 276.684 73.8203 277.387C74.125 278.082 74.2773 278.848 74.2773 279.684C74.2773 280.598 74.0938 281.453 73.7266 282.25C73.3672 283.039 72.8867 283.773 72.2852 284.453C71.6836 285.125 70.9922 285.742 70.2109 286.305C69.4297 286.859 68.625 287.359 67.7969 287.805L67.4805 287.969H74.4883V291.039H62.2305V287.992C62.8633 287.648 63.5078 287.281 64.1641 286.891C64.8281 286.5 65.4688 286.094 66.0859 285.672C66.7109 285.242 67.3008 284.797 67.8555 284.336C68.4102 283.875 68.8906 283.398 69.2969 282.906C69.7109 282.406 70.0391 281.895 70.2812 281.371C70.5234 280.84 70.6445 280.293 70.6445 279.73C70.6445 279.41 70.5898 279.094 70.4805 278.781C70.3711 278.469 70.207 278.191 69.9883 277.949C69.7773 277.707 69.5039 277.512 69.168 277.363C68.8398 277.215 68.4531 277.141 68.0078 277.141Z" fill="#3D2375"/>
<path d="M84.0391 285.906C84.1641 286.305 84.3398 286.652 84.5664 286.949C84.793 287.238 85.0547 287.48 85.3516 287.676C85.6562 287.863 85.9844 288.004 86.3359 288.098C86.6953 288.184 87.0664 288.227 87.4492 288.227C87.9805 288.227 88.4297 288.164 88.7969 288.039C89.1719 287.906 89.4727 287.738 89.6992 287.535C89.9336 287.324 90.1016 287.09 90.2031 286.832C90.3047 286.566 90.3555 286.297 90.3555 286.023C90.3555 285.359 90.0781 284.836 89.5234 284.453C88.9766 284.062 88.1328 283.867 86.9922 283.867H86.0547V281.031H86.7695C87.8008 281.031 88.6055 280.863 89.1836 280.527C89.7695 280.191 90.0625 279.68 90.0625 278.992C90.0625 278.695 89.9961 278.43 89.8633 278.195C89.7305 277.953 89.5469 277.75 89.3125 277.586C89.0859 277.422 88.8125 277.297 88.4922 277.211C88.1797 277.117 87.8398 277.07 87.4727 277.07C87.0508 277.07 86.6641 277.129 86.3125 277.246C85.9688 277.363 85.6602 277.523 85.3867 277.727C85.1133 277.93 84.875 278.168 84.6719 278.441C84.4766 278.715 84.3203 279.004 84.2031 279.309L81.2031 278.102C81.3828 277.445 81.6797 276.863 82.0938 276.355C82.5078 275.848 82.9922 275.422 83.5469 275.078C84.1094 274.727 84.7266 274.461 85.3984 274.281C86.0703 274.094 86.7539 274 87.4492 274C88.3164 274 89.1211 274.105 89.8633 274.316C90.6055 274.527 91.25 274.836 91.7969 275.242C92.3516 275.641 92.7852 276.133 93.0977 276.719C93.4102 277.305 93.5664 277.973 93.5664 278.723C93.5664 279.168 93.4922 279.586 93.3438 279.977C93.2031 280.359 93.0078 280.707 92.7578 281.02C92.5156 281.324 92.2266 281.586 91.8906 281.805C91.5547 282.023 91.1953 282.191 90.8125 282.309C91.2422 282.402 91.6445 282.559 92.0195 282.777C92.3945 282.996 92.7227 283.27 93.0039 283.598C93.2852 283.926 93.5039 284.305 93.6602 284.734C93.8242 285.164 93.9062 285.633 93.9062 286.141C93.9062 286.914 93.7383 287.617 93.4023 288.25C93.0742 288.883 92.6211 289.422 92.043 289.867C91.4648 290.312 90.7812 290.66 89.9922 290.91C89.2109 291.152 88.3633 291.273 87.4492 291.273C86.6445 291.273 85.8711 291.172 85.1289 290.969C84.3867 290.758 83.7188 290.461 83.125 290.078C82.5312 289.688 82.0312 289.215 81.625 288.66C81.2188 288.098 80.9453 287.465 80.8047 286.762L84.0391 285.906Z" fill="#3D2375"/>
<path d="M103.891 291.039V287.242H95.5117V283.621L102.953 274.234H107.301V284.172H109.75V287.242H107.301V291.039H103.891ZM103.891 284.172V277.574L98.6641 284.172H103.891Z" fill="#3D2375"/>
<path d="M115.984 283.41L116.922 274.234H127.703V277.316H119.781L119.441 280.434C119.629 280.277 119.848 280.137 120.098 280.012C120.348 279.887 120.617 279.781 120.906 279.695C121.195 279.609 121.488 279.543 121.785 279.496C122.09 279.449 122.391 279.426 122.688 279.426C123.531 279.426 124.312 279.562 125.031 279.836C125.75 280.109 126.371 280.496 126.895 280.996C127.418 281.496 127.828 282.098 128.125 282.801C128.422 283.504 128.57 284.281 128.57 285.133C128.57 286.062 128.398 286.906 128.055 287.664C127.719 288.414 127.25 289.059 126.648 289.598C126.055 290.129 125.352 290.543 124.539 290.84C123.734 291.129 122.867 291.273 121.938 291.273C121.188 291.273 120.465 291.176 119.77 290.98C119.082 290.785 118.453 290.504 117.883 290.137C117.312 289.77 116.816 289.316 116.395 288.777C115.98 288.238 115.676 287.625 115.48 286.938L118.703 285.883C118.945 286.609 119.324 287.18 119.84 287.594C120.355 288 121.039 288.203 121.891 288.203C122.398 288.203 122.848 288.117 123.238 287.945C123.629 287.773 123.953 287.551 124.211 287.277C124.477 286.996 124.676 286.68 124.809 286.328C124.949 285.969 125.02 285.602 125.02 285.227C125.02 284.859 124.949 284.504 124.809 284.16C124.668 283.809 124.461 283.5 124.188 283.234C123.922 282.961 123.594 282.742 123.203 282.578C122.82 282.414 122.383 282.332 121.891 282.332C121.586 282.332 121.297 282.375 121.023 282.461C120.75 282.539 120.5 282.645 120.273 282.777C120.047 282.902 119.852 283.051 119.688 283.223C119.523 283.387 119.395 283.551 119.301 283.715L115.984 283.41Z" fill="#3D2375"/>
<path d="M130.305 282.812C130.305 282.055 130.363 281.312 130.48 280.586C130.605 279.852 130.793 279.16 131.043 278.512C131.301 277.855 131.625 277.254 132.016 276.707C132.406 276.152 132.875 275.676 133.422 275.277C133.969 274.879 134.594 274.566 135.297 274.34C136.008 274.113 136.801 274 137.676 274C138.387 274 139.047 274.09 139.656 274.27C140.273 274.441 140.824 274.684 141.309 274.996C141.801 275.301 142.227 275.664 142.586 276.086C142.945 276.5 143.227 276.949 143.43 277.434L140.289 278.652C140.016 278.121 139.641 277.723 139.164 277.457C138.695 277.184 138.164 277.047 137.57 277.047C136.992 277.047 136.48 277.164 136.035 277.398C135.59 277.625 135.211 277.938 134.898 278.336C134.594 278.734 134.359 279.199 134.195 279.73C134.031 280.262 133.941 280.824 133.926 281.418C134.121 281.223 134.352 281.035 134.617 280.855C134.883 280.668 135.176 280.508 135.496 280.375C135.824 280.242 136.176 280.137 136.551 280.059C136.934 279.973 137.332 279.93 137.746 279.93C138.566 279.93 139.328 280.062 140.031 280.328C140.742 280.594 141.355 280.969 141.871 281.453C142.395 281.93 142.805 282.5 143.102 283.164C143.398 283.828 143.547 284.559 143.547 285.355C143.547 286.199 143.395 286.984 143.09 287.711C142.793 288.43 142.367 289.055 141.812 289.586C141.266 290.109 140.605 290.523 139.832 290.828C139.059 291.125 138.195 291.273 137.242 291.273C136.195 291.273 135.246 291.09 134.395 290.723C133.543 290.348 132.812 289.812 132.203 289.117C131.602 288.422 131.133 287.574 130.797 286.574C130.469 285.574 130.305 284.445 130.305 283.188V282.812ZM134.09 285.543C134.09 285.941 134.16 286.312 134.301 286.656C134.441 287 134.641 287.301 134.898 287.559C135.164 287.809 135.48 288.008 135.848 288.156C136.215 288.305 136.621 288.379 137.066 288.379C137.527 288.379 137.941 288.305 138.309 288.156C138.676 288.008 138.984 287.809 139.234 287.559C139.492 287.301 139.688 287 139.82 286.656C139.953 286.312 140.02 285.941 140.02 285.543C140.02 285.152 139.953 284.789 139.82 284.453C139.688 284.109 139.492 283.812 139.234 283.562C138.984 283.305 138.676 283.102 138.309 282.953C137.941 282.805 137.527 282.73 137.066 282.73C136.621 282.73 136.215 282.805 135.848 282.953C135.48 283.102 135.164 283.305 134.898 283.562C134.641 283.812 134.441 284.109 134.301 284.453C134.16 284.789 134.09 285.152 134.09 285.543Z" fill="#3D2375"/>
<path d="M149.664 282.637C149.664 281.434 149.844 280.309 150.203 279.262C150.57 278.207 151.094 277.293 151.773 276.52C152.453 275.738 153.277 275.125 154.246 274.68C155.215 274.227 156.305 274 157.516 274C158.391 274 159.199 274.113 159.941 274.34C160.691 274.566 161.363 274.887 161.957 275.301C162.559 275.715 163.074 276.215 163.504 276.801C163.934 277.387 164.273 278.043 164.523 278.77L161.254 279.859C161.16 279.547 161.012 279.227 160.809 278.898C160.605 278.562 160.348 278.262 160.035 277.996C159.723 277.723 159.355 277.5 158.934 277.328C158.52 277.156 158.055 277.07 157.539 277.07C156.766 277.07 156.102 277.23 155.547 277.551C155 277.863 154.551 278.281 154.199 278.805C153.848 279.32 153.586 279.91 153.414 280.574C153.25 281.23 153.168 281.902 153.168 282.59V282.684C153.168 283.379 153.25 284.059 153.414 284.723C153.586 285.379 153.848 285.965 154.199 286.48C154.551 286.996 155 287.414 155.547 287.734C156.102 288.047 156.766 288.203 157.539 288.203C158.055 288.203 158.52 288.117 158.934 287.945C159.355 287.773 159.723 287.555 160.035 287.289C160.348 287.016 160.605 286.715 160.809 286.387C161.012 286.059 161.16 285.738 161.254 285.426L164.523 286.504C164.273 287.23 163.934 287.887 163.504 288.473C163.074 289.059 162.559 289.562 161.957 289.984C161.363 290.398 160.691 290.719 159.941 290.945C159.199 291.164 158.391 291.273 157.516 291.273C156.305 291.273 155.215 291.051 154.246 290.605C153.277 290.16 152.453 289.547 151.773 288.766C151.094 287.984 150.57 287.07 150.203 286.023C149.844 284.977 149.664 283.848 149.664 282.637Z" fill="#3D2375"/>
</svg>
